<?xml version="1.0" encoding="utf-8"?>
<!-- Generator: Adobe Illustrator 16.0.3, SVG Export Plug-In . SVG Version: 6.00 Build 0)  -->
<!DOCTYPE svg PUBLIC "-//W3C//DTD SVG 1.1//EN" "http://www.w3.org/Graphics/SVG/1.1/DTD/svg11.dtd" [
	<!ENTITY ns_extend "http://ns.adobe.com/Extensibility/1.0/">
	<!ENTITY ns_ai "http://ns.adobe.com/AdobeIllustrator/10.0/">
	<!ENTITY ns_graphs "http://ns.adobe.com/Graphs/1.0/">
	<!ENTITY ns_vars "http://ns.adobe.com/Variables/1.0/">
	<!ENTITY ns_imrep "http://ns.adobe.com/ImageReplacement/1.0/">
	<!ENTITY ns_sfw "http://ns.adobe.com/SaveForWeb/1.0/">
	<!ENTITY ns_custom "http://ns.adobe.com/GenericCustomNamespace/1.0/">
	<!ENTITY ns_adobe_xpath "http://ns.adobe.com/XPath/1.0/">
]>
<svg version="1.1" xmlns:x="&ns_extend;" xmlns:i="&ns_ai;" xmlns:graph="&ns_graphs;"
	 xmlns="http://www.w3.org/2000/svg" xmlns:xlink="http://www.w3.org/1999/xlink" x="0px" y="0px" width="372.006px" height="448px"
	 viewBox="0 0 372.006 448" enable-background="new 0 0 372.006 448" xml:space="preserve">
<switch>
	
	<g i:extraneous="self">
	
		<g id="eligibility">
			<path d="M341.124-0.011H30.882C13.817-0.011,0,13.824,0,30.871v310.242c0,17.047,13.817,30.881,30.882,30.881h310.242
				c17.048,0,30.882-13.834,30.882-30.881V30.871C372.006,13.824,358.172-0.011,341.124-0.011z M150.059,290.277l-94.802-94.76
				l41.722-41.743l53.08,53.059L286.584,70.33l41.7,41.743L150.059,290.277z" fill="#205366"/>
			<path fill="#FFFFFF" d="M345.132,84.701" />
			<g>
				<path d="M35.423,432.236V382.13h37.153v8.477H45.54v11.108h25.156v8.442H45.54v13.637h27.993v8.442H35.423z" fill="#205366"/>
				<path d="M82.044,432.236V382.13h9.604v50.106H82.044z" fill="#205366"/>
				<path d="M101.492,391.017v-8.887h9.604v8.887H101.492z M101.492,432.236v-36.298h9.604v36.298H101.492z" fill="#205366"/>
				<path d="M120.051,434.629l10.972,1.333c0.182,1.275,0.604,2.153,1.265,2.632c0.911,0.684,2.346,1.025,4.306,1.025
					c2.506,0,4.386-0.376,5.64-1.128c0.843-0.502,1.481-1.311,1.914-2.427c0.296-0.798,0.444-2.268,0.444-4.409v-5.298
					c-2.871,3.92-6.494,5.879-10.869,5.879c-4.876,0-8.739-2.062-11.587-6.187c-2.233-3.258-3.35-7.314-3.35-12.168
					c0-6.083,1.464-10.731,4.392-13.944c2.928-3.213,6.568-4.819,10.92-4.819c4.489,0,8.191,1.972,11.108,5.913v-5.093h8.989v32.572
					c0,4.283-0.354,7.485-1.06,9.604c-0.707,2.119-1.698,3.782-2.974,4.99c-1.276,1.207-2.979,2.153-5.11,2.837
					c-2.131,0.684-4.825,1.025-8.083,1.025c-6.152,0-10.516-1.055-13.09-3.161c-2.575-2.108-3.862-4.78-3.862-8.016
					C120.017,435.472,120.028,435.084,120.051,434.629z M128.63,413.335c0,3.852,0.746,6.671,2.239,8.46
					c1.492,1.789,3.332,2.683,5.52,2.683c2.347,0,4.329-0.917,5.947-2.751c1.618-1.834,2.427-4.552,2.427-8.152
					c0-3.759-0.775-6.55-2.324-8.373c-1.55-1.822-3.509-2.734-5.879-2.734c-2.302,0-4.198,0.895-5.69,2.683
					C129.376,406.939,128.63,409.668,128.63,413.335z" fill="#205366"/>
				<path d="M163.698,391.017v-8.887h9.604v8.887H163.698z M163.698,432.236v-36.298h9.604v36.298H163.698z" fill="#205366"/>
				<path d="M182.736,432.236V382.13h9.604v18.047c2.962-3.372,6.471-5.059,10.527-5.059c4.42,0,8.078,1.602,10.972,4.803
					c2.894,3.201,4.341,7.799,4.341,13.79c0,6.198-1.476,10.972-4.426,14.321c-2.951,3.35-6.534,5.024-10.75,5.024
					c-2.074,0-4.119-0.519-6.135-1.555c-2.017-1.037-3.754-2.569-5.212-4.598v5.332H182.736z M192.272,413.301
					c0,3.76,0.592,6.54,1.777,8.34c1.663,2.553,3.874,3.828,6.631,3.828c2.119,0,3.925-0.906,5.417-2.717
					c1.492-1.813,2.239-4.666,2.239-8.563c0-4.146-0.752-7.137-2.256-8.972c-1.504-1.833-3.43-2.751-5.776-2.751
					c-2.302,0-4.216,0.895-5.742,2.683C193.035,406.939,192.272,409.656,192.272,413.301z" fill="#205366"/>
				<path d="M225.904,391.017v-8.887h9.604v8.887H225.904z M225.904,432.236v-36.298h9.604v36.298H225.904z" fill="#205366"/>
				<path d="M245.353,432.236V382.13h9.604v50.106H245.353z" fill="#205366"/>
				<path d="M264.801,391.017v-8.887h9.604v8.887H264.801z M264.801,432.236v-36.298h9.604v36.298H264.801z" fill="#205366"/>
				<path d="M300.895,395.938v7.656h-6.563v14.628c0,2.963,0.063,4.688,0.188,5.178c0.125,0.491,0.41,0.896,0.854,1.214
					c0.444,0.319,0.985,0.479,1.624,0.479c0.889,0,2.176-0.308,3.861-0.923l0.82,7.451c-2.232,0.957-4.762,1.436-7.588,1.436
					c-1.731,0-3.293-0.291-4.682-0.871c-1.391-0.582-2.41-1.334-3.06-2.256c-0.649-0.924-1.1-2.171-1.351-3.743
					c-0.205-1.116-0.307-3.372-0.307-6.768v-15.824h-4.41v-7.656h4.41v-7.212l9.639-5.605v12.817H300.895z" fill="#205366"/>
				<path d="M303.014,395.938h10.219l8.682,25.771l8.477-25.771h9.946l-12.817,34.931l-2.289,6.323
					c-0.844,2.119-1.646,3.736-2.41,4.854c-0.764,1.116-1.641,2.021-2.632,2.718c-0.991,0.694-2.21,1.235-3.657,1.623
					c-1.447,0.387-3.082,0.581-4.904,0.581c-1.846,0-3.658-0.194-5.436-0.581l-0.854-7.52c1.504,0.296,2.859,0.444,4.066,0.444
					c2.233,0,3.885-0.655,4.957-1.966c1.07-1.311,1.891-2.979,2.461-5.007L303.014,395.938z" fill="#205366"/>
			</g>
		</g>
	
		
	</g>
</switch>

</svg>
