<?xml version="1.0" encoding="utf-8"?>
<!-- Generator: Adobe Illustrator 16.0.3, SVG Export Plug-In . SVG Version: 6.00 Build 0)  -->
<!DOCTYPE svg PUBLIC "-//W3C//DTD SVG 1.1//EN" "http://www.w3.org/Graphics/SVG/1.1/DTD/svg11.dtd" [
	<!ENTITY ns_extend "http://ns.adobe.com/Extensibility/1.0/">
	<!ENTITY ns_ai "http://ns.adobe.com/AdobeIllustrator/10.0/">
	<!ENTITY ns_graphs "http://ns.adobe.com/Graphs/1.0/">
	<!ENTITY ns_vars "http://ns.adobe.com/Variables/1.0/">
	<!ENTITY ns_imrep "http://ns.adobe.com/ImageReplacement/1.0/">
	<!ENTITY ns_sfw "http://ns.adobe.com/SaveForWeb/1.0/">
	<!ENTITY ns_custom "http://ns.adobe.com/GenericCustomNamespace/1.0/">
	<!ENTITY ns_adobe_xpath "http://ns.adobe.com/XPath/1.0/">
]>
<svg version="1.1" xmlns:x="&ns_extend;" xmlns:i="&ns_ai;" xmlns:graph="&ns_graphs;"
	 xmlns="http://www.w3.org/2000/svg" xmlns:xlink="http://www.w3.org/1999/xlink" x="0px" y="0px" width="189.363px" height="448px"
	 viewBox="0 0 189.363 448" enable-background="new 0 0 189.363 448" xml:space="preserve">
<switch>
	
	<g i:extraneous="self">
		<g id="rx_-entered">
         	<path d="M188.565,23.469l-0.028,17.854c-0.01,12.79-10.435,23.205-23.223,23.197L23.19,64.295
				C10.378,64.263-0.02,53.838,0,41.026l0.022-17.853C0.037,10.383,10.461-0.032,23.269,0l142.123,0.225
				C178.191,0.233,188.585,10.657,188.565,23.469L188.565,23.469z M188.985,104.093l-0.3,244.718
				c-0.011,12.205-9.969,22.106-22.175,22.097l-144.342-0.178c-12.195-0.011-22.108-9.947-22.097-22.153l0.306-244.717
				c0.016-12.206,9.952-22.131,22.158-22.12l144.344,0.178C179.073,81.951,188.996,91.864,188.985,104.093L188.985,104.093z
				 M171.995,158.474l-154.751-0.194l-0.181,135.895l154.764,0.194L171.995,158.474z M152.432,207.47" fill="#205366"/>
			<path d="M142.897,169.105l-70.124,70.53l-27.426-27.253l-21.429,21.568l48.983,48.672l91.543-92.076L142.897,169.105z
				 M142.897,169.105" fill="#205366"/>
			<g>
				<path d="M54.996,447.916v-50.105h21.293c5.354,0,9.246,0.449,11.672,1.35s4.369,2.502,5.828,4.803
					c1.458,2.301,2.188,4.934,2.188,7.895c0,3.76-1.105,6.865-3.315,9.314c-2.21,2.449-5.515,3.994-9.912,4.631
					c2.188,1.275,3.993,2.678,5.417,4.203c1.424,1.527,3.344,4.238,5.759,8.135l6.118,9.775h-12.1l-7.314-10.902
					c-2.598-3.896-4.375-6.352-5.332-7.367c-0.957-1.012-1.971-1.709-3.042-2.084c-1.071-0.377-2.769-0.564-5.093-0.564h-2.051
					v20.918H54.996z M65.112,419.002h7.485c4.854,0,7.884-0.205,9.092-0.615c1.208-0.41,2.153-1.117,2.837-2.119
					s1.025-2.256,1.025-3.76c0-1.686-0.45-3.047-1.35-4.084c-0.9-1.037-2.17-1.693-3.811-1.967c-0.82-0.113-3.281-0.17-7.383-0.17
					h-7.896V419.002z" fill="#205366"/>
				<path d="M100.83,447.916l13.09-18.695l-12.543-17.602H113.1l6.426,9.98l6.768-9.98h11.279l-12.305,17.191l13.433,19.105h-11.792
					l-7.383-11.244l-7.451,11.244H100.83z" fill="#205366"/>
			</g>
		</g>
		
	</g>
</switch>

</svg>
