<?xml version="1.0" encoding="utf-8" ?>
<!-- Generator: Adobe Illustrator 16.0.3, SVG Export Plug-In . SVG Version: 6.00 Build 0)  -->
<!DOCTYPE svg PUBLIC "-//W3C//DTD SVG 1.1//EN" "http://www.w3.org/Graphics/SVG/1.1/DTD/svg11.dtd" [
<!ENTITY ns_extend "http://ns.adobe.com/Extensibility/1.0/">
	<!ENTITY ns_ai "http://ns.adobe.com/AdobeIllustrator/10.0/">
	<!ENTITY ns_graphs "http://ns.adobe.com/Graphs/1.0/">
	<!ENTITY ns_vars "http://ns.adobe.com/Variables/1.0/">
	<!ENTITY ns_imrep "http://ns.adobe.com/ImageReplacement/1.0/">
	<!ENTITY ns_sfw "http://ns.adobe.com/SaveForWeb/1.0/">
	<!ENTITY ns_custom "http://ns.adobe.com/GenericCustomNamespace/1.0/">
	<!ENTITY ns_adobe_xpath "http://ns.adobe.com/XPath/1.0/">
]>
<svg version="1.1" xmlns:x="&ns_extend;" xmlns:i="&ns_ai;" xmlns:graph="&ns_graphs;"
     xmlns="http://www.w3.org/2000/svg" xmlns:xlink="http://www.w3.org/1999/xlink" x="0px" y="0px" width="413.952px" height="448px"
     viewBox="0 0 413.952 448" enable-background="new 0 0 413.952 448" xml:space="preserve">
<switch>
<g i:extraneous="self">
		
<g id="Create_new_Rx">
<g>
<g>
<path fill-rule="evenodd" clip-rule="evenodd" d="M77.588,259.349c-26.241,0-51.158,0-76.587,0c0-86.25,0-172.237,0-258.787
						C2.499,0.412,4.109,0,5.708,0c47.2,0.112,94.376,0.038,141.565,0.487c9.912,0.075,19.899,1.348,29.636,3.071
						c34.056,6.179,55.104,33.818,53.48,69.546c-1.598,35.916-20.574,59.51-55.465,69.023c-2.384,0.636-4.731,1.423-7.265,2.172
						c21.122,31.684,41.945,62.993,63.454,95.275c3.521-5.243,6.217-9.176,8.839-13.183c8.188-12.546,16.304-25.205,24.643-37.713
						c1.148-1.686,3.37-3.746,5.118-3.746c23.645-0.262,47.264-0.188,72.206-0.188c-1.836,2.809-2.997,4.645-4.271,6.479
						c-17.876,25.466-35.652,50.97-53.779,76.25c-3.296,4.607-3.782,7.641-0.274,12.584c19.699,28.051,38.925,56.439,58.324,84.714
						c1.298,1.873,2.472,3.821,4.231,6.518c-2.459,0.262-4.194,0.599-5.93,0.599c-22.445,0-44.891-0.112-67.312,0.112
						c-4.47,0.075-6.791-1.536-8.863-5.355c-9.238-16.853-18.801-33.556-28.239-50.335c-1.147-1.984-2.371-3.932-4.069-6.815
						c-1.686,2.359-2.996,4.119-4.194,5.955c-11.484,17.265-22.87,34.567-34.554,51.683c-1.423,2.134-4.37,4.531-6.642,4.568
						c-22.208,0.3-44.442,0.188-66.663,0.15c-0.599,0-1.223-0.3-2.671-0.712c1.361-2.098,2.472-4.007,3.72-5.806
						c19.674-28.836,39.298-57.748,59.123-86.474c2.559-3.67,2.646-6.18,0.1-9.999c-23.045-34.193-46.165-68.386-68.585-103.028
						c-6.03-9.363-13.357-13.557-24.068-12.921c-2.934,0.15-5.893,0-9.712,0C77.588,188.454,77.588,223.62,77.588,259.349z
						 M77.738,106.323c20.323-0.112,40.397,1.948,59.846-4.569c9.913-3.296,16.129-13.632,15.805-25.055
						c-0.337-12.434-6.317-21.347-17.564-24.231c-19.087-4.869-38.512-1.872-58.086-2.621
						C77.738,68.985,77.738,87.298,77.738,106.323z" fill="#205366" />
				</g>
<g>
<path d="M331.322,1.031c-45.628,0-82.616,37.001-82.616,82.617c0,45.641,36.988,82.617,82.616,82.617
						s82.63-36.977,82.63-82.617C413.952,38.032,376.95,1.031,331.322,1.031z M346.738,98.029v47.912l-31.934-0.012l0.013-47.862
						l-47.9-0.025l0.025-31.896l47.875-0.025l0.013-47.875l31.896-0.013l0.013,47.913l47.875-0.025l0.012,31.92L346.738,98.029z" fill="#205366" />
				</g>
			</g>
<g>
<path d="M30.243,428.826l8.535,3.109c-1.309,5.469-3.484,9.531-6.527,12.186c-3.043,2.654-6.904,3.982-11.583,3.982
					c-5.789,0-10.546-2.273-14.273-6.82c-3.727-4.545-5.59-10.76-5.59-18.643c0-8.34,1.874-14.816,5.62-19.432
					c3.747-4.613,8.673-6.922,14.779-6.922c5.333,0,9.664,1.813,12.995,5.436c1.982,2.143,3.469,5.219,4.46,9.229l-8.713,2.393
					c-0.516-2.598-1.591-4.648-3.226-6.152c-1.636-1.504-3.624-2.256-5.962-2.256c-3.231,0-5.854,1.332-7.865,3.998
					c-2.012,2.666-3.018,6.984-3.018,12.955c0,6.334,0.991,10.846,2.974,13.533c1.982,2.689,4.559,4.033,7.731,4.033
					c2.339,0,4.351-0.854,6.036-2.563S29.509,432.494,30.243,428.826z" fill="#205366" />
<path d="M53.355,447.248H45v-36.297h7.761v5.16c1.328-2.438,2.522-4.043,3.583-4.818c1.06-0.775,2.265-1.162,3.613-1.162
					c1.903,0,3.737,0.604,5.501,1.811l-2.587,8.375c-1.408-1.049-2.716-1.572-3.925-1.572c-1.17,0-2.161,0.371-2.974,1.111
					c-0.813,0.74-1.453,2.078-1.918,4.016c-0.466,1.938-0.699,5.992-0.699,12.166V447.248z" fill="#205366" />
<path d="M86.431,435.695l8.326,1.607c-1.071,3.51-2.761,6.182-5.07,8.014c-2.31,1.836-5.199,2.752-8.668,2.752
					c-5.492,0-9.556-2.061-12.192-6.186c-2.082-3.305-3.123-7.475-3.123-12.51c0-6.016,1.368-10.727,4.104-14.133
					s6.195-5.109,10.378-5.109c4.698,0,8.405,1.783,11.121,5.35s4.015,9.029,3.896,16.387H74.269c0.06,2.85,0.733,5.064,2.022,6.648
					c1.289,1.584,2.894,2.375,4.817,2.375c1.308,0,2.409-0.41,3.301-1.23S85.975,437.52,86.431,435.695z M86.907,425.99
					c-0.06-2.779-0.684-4.893-1.873-6.34s-2.637-2.172-4.342-2.172c-1.824,0-3.331,0.764-4.52,2.291s-1.774,3.6-1.754,6.221H86.907z
					" fill="#205366" />
<path d="M107.343,422.025l-7.582-1.572c0.852-3.51,2.319-6.107,4.4-7.793s5.174-2.529,9.278-2.529
					c3.727,0,6.502,0.508,8.326,1.521c1.824,1.014,3.107,2.301,3.851,3.861c0.744,1.561,1.115,4.426,1.115,8.596l-0.089,11.211
					c0,3.189,0.134,5.543,0.402,7.057c0.268,1.518,0.768,3.141,1.501,4.871h-8.267c-0.218-0.637-0.486-1.582-0.803-2.836
					c-0.139-0.57-0.238-0.945-0.297-1.129c-1.428,1.596-2.955,2.793-4.58,3.59c-1.626,0.797-3.36,1.195-5.204,1.195
					c-3.251,0-5.813-1.014-7.687-3.041s-2.81-4.592-2.81-7.691c0-2.051,0.426-3.879,1.278-5.486
					c0.853-1.605,2.046-2.836,3.583-3.691c1.536-0.854,3.751-1.6,6.646-2.236c3.905-0.844,6.611-1.629,8.118-2.359v-0.957
					c0-1.846-0.397-3.16-1.189-3.947c-0.793-0.785-2.29-1.18-4.49-1.18c-1.487,0-2.646,0.338-3.479,1.01
					C108.533,419.16,107.859,420.34,107.343,422.025z M118.524,429.816c-1.071,0.41-2.766,0.9-5.085,1.471s-3.836,1.127-4.55,1.674
					c-1.09,0.889-1.635,2.018-1.635,3.385c0,1.344,0.436,2.506,1.308,3.486c0.872,0.98,1.982,1.469,3.331,1.469
					c1.506,0,2.944-0.568,4.312-1.709c1.011-0.865,1.675-1.924,1.992-3.178c0.218-0.82,0.327-2.381,0.327-4.684V429.816z" fill="#205366" />
<path d="M148.537,410.951v7.656h-5.709v14.627c0,2.963,0.054,4.689,0.164,5.178c0.108,0.492,0.357,0.896,0.743,1.215
					c0.387,0.318,0.857,0.479,1.413,0.479c0.773,0,1.893-0.309,3.36-0.924l0.713,7.451c-1.943,0.957-4.144,1.436-6.601,1.436
					c-1.507,0-2.865-0.291-4.074-0.871c-1.209-0.582-2.096-1.334-2.661-2.256c-0.565-0.924-0.957-2.17-1.175-3.742
					c-0.178-1.117-0.268-3.373-0.268-6.768v-15.824h-3.836v-7.656h3.836v-7.213l8.386-5.605v12.818H148.537z" fill="#205366" />
<path d="M171.709,435.695l8.326,1.607c-1.071,3.51-2.761,6.182-5.07,8.014c-2.31,1.836-5.199,2.752-8.668,2.752
					c-5.492,0-9.556-2.061-12.192-6.186c-2.082-3.305-3.123-7.475-3.123-12.51c0-6.016,1.368-10.727,4.104-14.133
					s6.195-5.109,10.378-5.109c4.698,0,8.405,1.783,11.121,5.35s4.015,9.029,3.896,16.387h-20.934
					c0.06,2.85,0.733,5.064,2.022,6.648c1.289,1.584,2.894,2.375,4.817,2.375c1.308,0,2.409-0.41,3.301-1.23
					S171.252,437.52,171.709,435.695z M172.185,425.99c-0.06-2.779-0.684-4.893-1.873-6.34s-2.637-2.172-4.342-2.172
					c-1.824,0-3.331,0.764-4.52,2.291s-1.774,3.6-1.754,6.221H172.185z" fill="#205366" />
<path d="M202.532,447.248v-50.105h8.564l17.841,33.461v-33.461h8.178v50.105h-8.832l-17.574-32.674v32.674H202.532z" fill="#205366"/>
<path d="M263.737,435.695l8.326,1.607c-1.071,3.51-2.761,6.182-5.07,8.014c-2.31,1.836-5.199,2.752-8.668,2.752
					c-5.491,0-9.556-2.061-12.191-6.186c-2.081-3.305-3.122-7.475-3.122-12.51c0-6.016,1.367-10.727,4.104-14.133
					c2.735-3.406,6.194-5.109,10.377-5.109c4.699,0,8.406,1.783,11.121,5.35c2.717,3.566,4.016,9.029,3.896,16.387h-20.935
					c0.06,2.85,0.733,5.064,2.022,6.648c1.288,1.584,2.894,2.375,4.816,2.375c1.309,0,2.409-0.41,3.301-1.23
					C262.607,438.84,263.281,437.52,263.737,435.695z M264.213,425.99c-0.06-2.779-0.684-4.893-1.873-6.34s-2.637-2.172-4.342-2.172
					c-1.824,0-3.33,0.764-4.52,2.291s-1.775,3.6-1.755,6.221H264.213z" fill="#205366" />
<path d="M284.293,447.248l-9.991-36.297h8.118l5.918,23.787l5.441-23.787h8.059l5.263,23.787l6.036-23.787h8.236l-10.139,36.297
					h-8.029l-5.441-23.344l-5.353,23.344H284.293z" fill="#205366"/>
<path d="M340.957,447.248v-50.105h18.525c4.658,0,8.045,0.449,10.156,1.35c2.109,0.9,3.799,2.502,5.068,4.803
					c1.268,2.301,1.902,4.934,1.902,7.895c0,3.76-0.961,6.865-2.885,9.314c-1.922,2.449-4.797,3.994-8.621,4.631
					c1.902,1.275,3.473,2.678,4.711,4.203c1.24,1.527,2.91,4.238,5.012,8.135l5.322,9.775h-10.525l-6.363-10.902
					c-2.26-3.896-3.807-6.352-4.639-7.367c-0.834-1.012-1.715-1.709-2.646-2.084c-0.934-0.377-2.41-0.564-4.432-0.564h-1.783v20.918
					H340.957z M349.76,418.334h6.512c4.223,0,6.859-0.205,7.91-0.615s1.873-1.117,2.467-2.119c0.596-1.002,0.893-2.256,0.893-3.76
					c0-1.686-0.391-3.047-1.174-4.084s-1.889-1.693-3.316-1.967c-0.713-0.113-2.854-0.17-6.422-0.17h-6.869V418.334z" fill="#205366" />
<path d="M379.918,447.248l11.391-18.695l-10.914-17.602h10.199l5.592,9.98l5.887-9.98h9.813l-10.705,17.191l11.688,19.105
					h-10.26l-6.422-11.244l-6.484,11.244H379.918z" fill="#205366" />
			</g>
		</g>
	</g>
</switch>
</svg>
