<?xml version="1.0" encoding="UTF-8" standalone="no"?>
<!-- Created with Inkscape (http://www.inkscape.org/) -->

<svg
   xmlns:dc="http://purl.org/dc/elements/1.1/"
   xmlns:cc="http://creativecommons.org/ns#"
   xmlns:rdf="http://www.w3.org/1999/02/22-rdf-syntax-ns#"
   xmlns:svg="http://www.w3.org/2000/svg"
   xmlns="http://www.w3.org/2000/svg"
   xmlns:sodipodi="http://sodipodi.sourceforge.net/DTD/sodipodi-0.dtd"
   xmlns:inkscape="http://www.inkscape.org/namespaces/inkscape"
   id="svg4136"
   version="1.1"
   inkscape:version="0.91 r13725"
   xml:space="preserve"
   width="196"
   height="194.125"
   viewBox="0 0 196 194.125"
   sodipodi:docname="SRS_roundel_black.svg"><metadata
     id="metadata4142"><rdf:RDF><cc:Work
         rdf:about=""><dc:format>image/svg+xml</dc:format><dc:type
           rdf:resource="http://purl.org/dc/dcmitype/StillImage" /><dc:title></dc:title></cc:Work></rdf:RDF></metadata><defs
     id="defs4140" /><sodipodi:namedview
     pagecolor="#ffffff"
     bordercolor="#666666"
     borderopacity="1"
     objecttolerance="10"
     gridtolerance="10"
     guidetolerance="10"
     inkscape:pageopacity="0"
     inkscape:pageshadow="2"
     inkscape:window-width="1680"
     inkscape:window-height="987"
     id="namedview4138"
     showgrid="false"
     inkscape:zoom="4.2292337"
     inkscape:cx="98"
     inkscape:cy="97.0625"
     inkscape:window-x="1676"
     inkscape:window-y="-4"
     inkscape:window-maximized="1"
     inkscape:current-layer="g4144" /><g
     id="g4144"
     inkscape:groupmode="layer"
     inkscape:label="ink_ext_XXXXXX"
     transform="matrix(1.25,0,0,-1.25,0,194.125)"><g
       id="g4146"
       transform="scale(0.1,0.1)"><path
         d="M 390.137,508.121 C 179.848,793.324 136.992,967.004 100.16,1156.89 -30.2305,923.715 -38.1797,629.828 105.094,381.66 214.727,191.781 391.809,65.25 588.578,14.5703 586.887,37.9883 583.73,61.8516 578.824,86.2383 555.094,196.762 551.543,290.441 390.137,508.121"
         style="fill:#231f20;fill-opacity:1;fill-rule:nonzero;stroke:none"
         id="path4148"
         inkscape:connector-curvature="0" /><path
         d="m 1196.21,306.66 c -23.73,110.512 -27.3,204.199 -188.69,421.86 -217.27,294.68 -255.797,470.31 -293.598,667.76 -10.606,53.82 -15.059,106.02 -13.828,156.74 -84.68,-9.1 -168.977,-32.13 -249.531,-70.11 C 411.02,1407.24 397.805,1319.5 411.09,1219.56 426.77,1094.5 438.652,976.047 624.934,723.43 846.488,424.301 881.031,250.27 906.559,60.5898 909.105,40.2383 910.621,20.0703 911.469,0 c 90.661,14.9414 180.261,46.0195 264.561,94.6797 7.68,4.4297 15.09,9.1603 22.57,13.8203 12.41,61.941 11.71,127.988 -2.39,198.16"
         style="fill:#231f20;fill-opacity:1;fill-rule:nonzero;stroke:none"
         id="path4150"
         inkscape:connector-curvature="0" /><path
         d="m 1028.49,1439.98 c 15.67,-125.07 27.58,-243.53 213.85,-496.128 157.72,-212.981 220.62,-362.52 253.01,-499.461 103.18,223.464 100.04,491.851 -32.39,721.229 -101.36,175.54 -260.41,296.89 -439.33,354.22 -0.36,-25.71 1.19,-52.31 4.86,-79.86"
         style="fill:#231f20;fill-opacity:1;fill-rule:nonzero;stroke:none"
         id="path4152"
         inkscape:connector-curvature="0" /></g></g></svg>