<?xml version="1.0" encoding="utf-8"?>
<!-- Generator: Adobe Illustrator 16.0.3, SVG Export Plug-In . SVG Version: 6.00 Build 0)  -->
<!DOCTYPE svg PUBLIC "-//W3C//DTD SVG 1.1//EN" "http://www.w3.org/Graphics/SVG/1.1/DTD/svg11.dtd" [
	<!ENTITY ns_extend "http://ns.adobe.com/Extensibility/1.0/">
	<!ENTITY ns_ai "http://ns.adobe.com/AdobeIllustrator/10.0/">
	<!ENTITY ns_graphs "http://ns.adobe.com/Graphs/1.0/">
	<!ENTITY ns_vars "http://ns.adobe.com/Variables/1.0/">
	<!ENTITY ns_imrep "http://ns.adobe.com/ImageReplacement/1.0/">
	<!ENTITY ns_sfw "http://ns.adobe.com/SaveForWeb/1.0/">
	<!ENTITY ns_custom "http://ns.adobe.com/GenericCustomNamespace/1.0/">
	<!ENTITY ns_adobe_xpath "http://ns.adobe.com/XPath/1.0/">
]>
<svg version="1.1" xmlns:x="&ns_extend;" xmlns:i="&ns_ai;" xmlns:graph="&ns_graphs;"
	 xmlns="http://www.w3.org/2000/svg" xmlns:xlink="http://www.w3.org/1999/xlink" x="0px" y="0px" width="364.354px" height="448px"
	 viewBox="0 0 364.354 448" enable-background="new 0 0 364.354 448" xml:space="preserve">
<switch>

	<g i:extraneous="self">
	
		<g id="Allegies">
			<g>
				<path d="M141.878,0h83.694l138.796,371.168h-84.734l-28.07-82.655H112.767l-29.111,82.655H1.001L141.878,0z M134.081,227.691
					h96.17L183.465,91.493h-1.04L134.081,227.691z" fill="#205366"/>
			</g>
			<g>
				<path d="M85.104,431.882H74.099L69.724,420.5H49.694l-4.136,11.382H34.827l19.516-50.106h10.698L85.104,431.882z
					 M66.477,412.058l-6.904-18.593l-6.768,18.593H66.477z" fill="#205366"/>
				<path d="M90.402,431.882v-50.106h9.604v50.106H90.402z" fill="#205366"/>
				<path d="M109.85,431.882v-50.106h9.604v50.106H109.85z" fill="#205366"/>
				<path d="M150.318,420.329l9.57,1.606c-1.23,3.51-3.173,6.182-5.828,8.015c-2.655,1.835-5.976,2.752-9.963,2.752
					c-6.312,0-10.983-2.062-14.013-6.187c-2.393-3.304-3.589-7.474-3.589-12.51c0-6.015,1.572-10.726,4.717-14.133
					c3.145-3.405,7.121-5.109,11.928-5.109c5.4,0,9.661,1.783,12.783,5.35c3.122,3.566,4.614,9.029,4.478,16.388h-24.062
					c0.068,2.849,0.843,5.064,2.324,6.648s3.327,2.375,5.537,2.375c1.504,0,2.769-0.41,3.794-1.23S149.794,422.152,150.318,420.329z
					 M150.865,410.623c-0.068-2.779-0.786-4.893-2.153-6.34s-3.031-2.171-4.99-2.171c-2.097,0-3.828,0.764-5.195,2.29
					c-1.367,1.527-2.039,3.601-2.016,6.221H150.865z" fill="#205366"/>
				<path d="M177.423,431.882h-9.604v-36.298h8.921v5.161c1.526-2.438,2.899-4.044,4.119-4.819c1.219-0.774,2.603-1.162,4.153-1.162
					c2.188,0,4.294,0.604,6.323,1.812l-2.974,8.374c-1.618-1.048-3.122-1.572-4.511-1.572c-1.345,0-2.484,0.371-3.418,1.111
					c-0.935,0.74-1.669,2.079-2.205,4.016c-0.536,1.938-0.803,5.992-0.803,12.167V431.882z" fill="#205366" />
				<path d="M194.581,434.274l10.972,1.333c0.182,1.275,0.604,2.153,1.265,2.632c0.911,0.684,2.347,1.025,4.307,1.025
					c2.506,0,4.386-0.376,5.64-1.128c0.843-0.502,1.481-1.311,1.914-2.427c0.296-0.798,0.444-2.268,0.444-4.409v-5.298
					c-2.871,3.92-6.494,5.879-10.869,5.879c-4.876,0-8.739-2.062-11.587-6.187c-2.233-3.258-3.35-7.314-3.35-12.168
					c0-6.083,1.464-10.731,4.392-13.944c2.928-3.213,6.568-4.819,10.92-4.819c4.489,0,8.191,1.972,11.108,5.913v-5.093h8.989v32.572
					c0,4.283-0.354,7.485-1.06,9.604s-1.697,3.782-2.973,4.99c-1.276,1.207-2.979,2.153-5.11,2.837
					c-2.131,0.684-4.825,1.025-8.083,1.025c-6.152,0-10.516-1.055-13.091-3.161c-2.575-2.108-3.862-4.78-3.862-8.016
					C194.546,435.117,194.558,434.729,194.581,434.274z M203.16,412.98c0,3.852,0.746,6.671,2.239,8.46
					c1.492,1.789,3.333,2.683,5.52,2.683c2.347,0,4.329-0.917,5.947-2.751c1.618-1.834,2.427-4.552,2.427-8.152
					c0-3.759-0.775-6.55-2.324-8.373c-1.55-1.822-3.509-2.734-5.879-2.734c-2.302,0-4.199,0.895-5.691,2.683
					C203.906,406.585,203.16,409.313,203.16,412.98z" fill="#205366"/>
				<path d="M238.228,390.662v-8.887h9.604v8.887H238.228z M238.228,431.882v-36.298h9.604v36.298H238.228z" fill="#205366"/>
				<path d="M278.696,420.329l9.569,1.606c-1.23,3.51-3.173,6.182-5.827,8.015c-2.654,1.835-5.976,2.752-9.963,2.752
					c-6.313,0-10.983-2.062-14.014-6.187c-2.393-3.304-3.589-7.474-3.589-12.51c0-6.015,1.572-10.726,4.717-14.133
					c3.145-3.405,7.12-5.109,11.929-5.109c5.4,0,9.661,1.783,12.783,5.35c3.121,3.566,4.613,9.029,4.477,16.388h-24.062
					c0.068,2.849,0.843,5.064,2.324,6.648c1.48,1.584,3.326,2.375,5.537,2.375c1.504,0,2.769-0.41,3.794-1.23
					S278.172,422.152,278.696,420.329z M279.243,410.623c-0.068-2.779-0.786-4.893-2.153-6.34s-3.031-2.171-4.99-2.171
					c-2.097,0-3.828,0.764-5.195,2.29c-1.367,1.527-2.04,3.601-2.017,6.221H279.243z" fill="#205366"/>
				<path d="M293.222,421.525l9.639-1.47c0.41,1.869,1.242,3.287,2.495,4.256s3.008,1.452,5.264,1.452
					c2.483,0,4.353-0.455,5.605-1.367c0.843-0.638,1.265-1.492,1.265-2.563c0-0.729-0.228-1.333-0.684-1.812
					c-0.479-0.455-1.55-0.877-3.213-1.265c-7.747-1.709-12.658-3.27-14.731-4.683c-2.871-1.959-4.307-4.682-4.307-8.168
					c0-3.145,1.242-5.787,3.726-7.93c2.483-2.142,6.335-3.213,11.553-3.213c4.968,0,8.659,0.81,11.074,2.427
					c2.415,1.618,4.079,4.011,4.99,7.178l-9.058,1.675c-0.388-1.412-1.122-2.495-2.204-3.247c-1.083-0.752-2.627-1.128-4.632-1.128
					c-2.529,0-4.341,0.354-5.435,1.06c-0.729,0.502-1.094,1.151-1.094,1.948c0,0.684,0.319,1.265,0.957,1.743
					c0.866,0.639,3.856,1.538,8.973,2.7c5.115,1.162,8.687,2.586,10.715,4.271c2.005,1.709,3.008,4.091,3.008,7.144
					c0,3.327-1.39,6.187-4.17,8.579s-6.893,3.589-12.339,3.589c-4.944,0-8.858-1.002-11.74-3.008
					C295.996,427.689,294.11,424.967,293.222,421.525z" fill="#205366" />
			</g>
		</g>
        
	</g>
</switch>

</svg>
