<?xml version="1.0" encoding="utf-8"?>
<!-- Generator: Adobe Illustrator 16.0.3, SVG Export Plug-In . SVG Version: 6.00 Build 0)  -->
<!DOCTYPE svg PUBLIC "-//W3C//DTD SVG 1.1//EN" "http://www.w3.org/Graphics/SVG/1.1/DTD/svg11.dtd">
<svg version="1.1" xmlns="http://www.w3.org/2000/svg" xmlns:xlink="http://www.w3.org/1999/xlink" x="0px" y="0px" width="330.5px"
	 height="448px" viewBox="0 0 330.5 448" enable-background="new 0 0 330.5 448" xml:space="preserve">

<g id="consent">
	<g>
		<path d="M252.049,127.765c-4.972-35.297-38.776-62.143-77.553-62.143c-70.097,0-96.445,59.657-96.445,121.8
			c0,59.16,26.348,118.815,96.445,118.815c47.725,0,74.57-32.811,80.536-79.541h75.564
			c-7.954,88.491-69.103,145.164-156.101,145.164C64.628,371.86,0,289.832,0,187.422C0,82.028,64.628,0,174.496,0
			c78.05,0,143.673,45.737,153.118,127.765H252.049z" fill="#205366" />
	</g>
	<g>
		<path d="M45.986,403.396c-1.806-7.052-6.364-12.212-15.308-12.212c-13.158,0-18.662,11.61-18.662,23.392
			c0,11.782,5.504,23.392,18.662,23.392c9.545,0,14.792-7.138,15.651-16.081h10.492c-0.86,14.705-11.266,24.854-26.144,24.854
			c-18.404,0-29.412-14.62-29.412-32.164c0-17.543,11.008-32.163,29.412-32.163c13.846,0.086,24.768,7.74,26.057,20.983H45.986z"  fill="#205366" />
		<path d="M63.185,423.004c0-13.588,8.17-23.392,22.446-23.392s22.446,9.804,22.446,23.392c0,13.674-8.17,23.478-22.446,23.478
			S63.185,436.678,63.185,423.004z M98.273,423.004c0-7.654-3.87-15.652-12.642-15.652s-12.642,7.998-12.642,15.652
			c0,7.739,3.87,15.737,12.642,15.737S98.273,430.743,98.273,423.004z" fill="#205366" />
		<path d="M116.246,400.815h9.288v6.536l0.172,0.172c2.924-4.901,7.998-7.911,13.846-7.911c9.632,0,15.738,5.159,15.738,15.136
			v30.529h-9.804v-27.95c-0.172-6.966-2.924-9.976-8.686-9.976c-6.536,0-10.75,5.16-10.75,11.696v26.229h-9.804V400.815z" fill="#205366"/>
		<path d="M173.005,431.001c0.516,5.677,4.816,7.74,10.062,7.74c3.698,0,10.148-0.774,9.89-5.848
			c-0.258-5.16-7.396-5.762-14.534-7.396c-7.224-1.548-14.276-4.128-14.276-13.157c0-9.718,10.492-12.728,18.576-12.728
			c9.116,0,17.372,3.783,18.576,13.674h-10.233c-0.86-4.645-4.73-5.935-9.03-5.935c-2.838,0-8.083,0.688-8.083,4.559
			c0,4.815,7.224,5.504,14.448,7.138c7.138,1.634,14.361,4.214,14.361,12.985c0,10.578-10.664,14.448-19.865,14.448
			c-11.18,0-19.522-4.988-19.694-15.48H173.005z" fill="#205366"/>
		<path d="M217.897,425.583c0,6.967,3.784,13.158,11.953,13.158c5.677,0,9.116-2.494,10.836-7.396h9.288
			c-2.149,9.718-10.405,15.136-20.124,15.136c-13.931,0-21.757-9.718-21.757-23.392c0-12.643,8.256-23.478,21.499-23.478
			c14.018,0,22.618,12.642,20.984,25.971H217.897z M240.771,419.134c-0.344-6.192-4.558-11.782-11.18-11.782
			c-6.793,0-11.437,5.16-11.695,11.782H240.771z" fill="#205366"/>
		<path d="M258.059,400.815h9.287v6.536l0.173,0.172c2.924-4.901,7.997-7.911,13.846-7.911c9.632,0,15.737,5.159,15.737,15.136
			v30.529h-9.804v-27.95c-0.172-6.966-2.924-9.976-8.686-9.976c-6.536,0-10.75,5.16-10.75,11.696v26.229h-9.804V400.815z" fill="#205366"/>
		<path d="M302.949,400.815h7.396v-13.329h9.804v13.329h8.857v7.311h-8.857v23.735c0,4.042,0.344,6.105,4.729,6.105
			c1.376,0,2.752,0,4.128-0.344v7.568c-2.149,0.172-4.214,0.516-6.363,0.516c-10.234,0-12.126-3.956-12.298-11.352v-26.229h-7.396
			V400.815z" fill="#205366"/>
	</g>
</g>
</svg>
