<?xml version="1.0" encoding="utf-8"?>
<!-- Generator: Adobe Illustrator 16.0.3, SVG Export Plug-In . SVG Version: 6.00 Build 0)  -->
<!DOCTYPE svg PUBLIC "-//W3C//DTD SVG 1.1//EN" "http://www.w3.org/Graphics/SVG/1.1/DTD/svg11.dtd" [
	<!ENTITY ns_extend "http://ns.adobe.com/Extensibility/1.0/">
	<!ENTITY ns_ai "http://ns.adobe.com/AdobeIllustrator/10.0/">
	<!ENTITY ns_graphs "http://ns.adobe.com/Graphs/1.0/">
	<!ENTITY ns_vars "http://ns.adobe.com/Variables/1.0/">
	<!ENTITY ns_imrep "http://ns.adobe.com/ImageReplacement/1.0/">
	<!ENTITY ns_sfw "http://ns.adobe.com/SaveForWeb/1.0/">
	<!ENTITY ns_custom "http://ns.adobe.com/GenericCustomNamespace/1.0/">
	<!ENTITY ns_adobe_xpath "http://ns.adobe.com/XPath/1.0/">
]>
<svg version="1.1" xmlns:x="&ns_extend;" xmlns:i="&ns_ai;" xmlns:graph="&ns_graphs;"
	 xmlns="http://www.w3.org/2000/svg" xmlns:xlink="http://www.w3.org/1999/xlink" x="0px" y="0px" width="365.927px" height="448px"
	 viewBox="0 0 365.927 448" enable-background="new 0 0 365.927 448" xml:space="preserve">
<switch>

	<g i:extraneous="self">
		<g id="rx_-entered" display="none">
			<path display="inline" d="M188.565,23.469l-0.028,17.854c-0.01,12.79-10.435,23.205-23.223,23.197L23.19,64.295
				C10.378,64.263-0.02,53.838,0,41.026l0.022-17.853C0.037,10.383,10.461-0.032,23.269,0l142.123,0.225
				C178.191,0.233,188.585,10.657,188.565,23.469L188.565,23.469z M188.985,104.093l-0.3,244.718
				c-0.011,12.205-9.969,22.106-22.175,22.097l-144.342-0.178c-12.195-0.011-22.108-9.947-22.097-22.153l0.306-244.717
				c0.016-12.206,9.952-22.131,22.158-22.12l144.344,0.178C179.073,81.951,188.996,91.864,188.985,104.093L188.985,104.093z
				 M171.995,158.474l-154.751-0.194l-0.181,135.895l154.764,0.194L171.995,158.474z M152.432,207.47"/>
			<path display="inline" d="M142.897,169.105l-70.124,70.53l-27.426-27.253l-21.429,21.568l48.983,48.672l91.543-92.076
				L142.897,169.105z M142.897,169.105"/>
			<g display="inline">
				<path d="M54.996,447.916v-50.105h21.293c5.354,0,9.246,0.449,11.672,1.35s4.369,2.502,5.828,4.803
					c1.458,2.301,2.188,4.934,2.188,7.895c0,3.76-1.105,6.865-3.315,9.314c-2.21,2.449-5.515,3.994-9.912,4.631
					c2.188,1.275,3.993,2.678,5.417,4.203c1.424,1.527,3.344,4.238,5.759,8.135l6.118,9.775h-12.1l-7.314-10.902
					c-2.598-3.896-4.375-6.352-5.332-7.367c-0.957-1.012-1.971-1.709-3.042-2.084c-1.071-0.377-2.769-0.564-5.093-0.564h-2.051
					v20.918H54.996z M65.112,419.002h7.485c4.854,0,7.884-0.205,9.092-0.615c1.208-0.41,2.153-1.117,2.837-2.119
					s1.025-2.256,1.025-3.76c0-1.686-0.45-3.047-1.35-4.084c-0.9-1.037-2.17-1.693-3.811-1.967c-0.82-0.113-3.281-0.17-7.383-0.17
					h-7.896V419.002z"/>
				<path d="M100.83,447.916l13.09-18.695l-12.543-17.602H113.1l6.426,9.98l6.768-9.98h11.279l-12.305,17.191l13.433,19.105h-11.792
					l-7.383-11.244l-7.451,11.244H100.83z"/>
			</g>
		</g>
		<g id="rx_1_" display="none">
			<g display="inline">
				<path d="M189.057,23.531l-0.028,17.899c-0.01,12.823-10.461,23.266-23.284,23.257L23.251,64.463
					C10.405,64.431-0.02,53.979,0,41.133l0.022-17.9C0.037,10.411,10.489-0.032,23.329,0l142.494,0.225
					C178.657,0.234,189.078,10.685,189.057,23.531L189.057,23.531z M189.479,104.365l-0.301,245.358
					c-0.011,12.236-9.996,22.164-22.233,22.154l-144.72-0.179C10,371.688,0.061,361.725,0.071,349.486l0.308-245.355
					c0.016-12.238,9.978-22.188,22.215-22.178l144.721,0.179C179.541,82.166,189.49,92.104,189.479,104.365L189.479,104.365z
					 M172.443,158.888l-155.155-0.195l-0.181,136.25l155.167,0.195L172.443,158.888z M152.83,208.012"/>
				<g>
					<path d="M150.57,261.097l-34.165-34.144l34.165-34.166l-22.777-22.776l-34.165,34.166l-34.165-34.166l-22.756,22.776
						l34.166,34.166l-34.166,34.144l22.756,22.776l34.165-34.143l34.165,34.143L150.57,261.097z M150.57,261.097"/>
				</g>
			</g>
			<g display="inline">
				<path d="M54.996,447.916v-50.105h21.293c5.354,0,9.246,0.449,11.672,1.35s4.369,2.502,5.828,4.803
					c1.458,2.301,2.188,4.934,2.188,7.895c0,3.76-1.105,6.865-3.315,9.314c-2.21,2.449-5.515,3.994-9.912,4.631
					c2.188,1.275,3.993,2.678,5.417,4.203c1.424,1.527,3.344,4.238,5.759,8.135l6.118,9.775h-12.1l-7.314-10.902
					c-2.598-3.896-4.375-6.352-5.332-7.367c-0.957-1.012-1.971-1.709-3.042-2.084c-1.071-0.377-2.769-0.564-5.093-0.564h-2.051
					v20.918H54.996z M65.112,419.002h7.485c4.854,0,7.884-0.205,9.092-0.615c1.208-0.41,2.153-1.117,2.837-2.119
					s1.025-2.256,1.025-3.76c0-1.686-0.45-3.047-1.35-4.084c-0.9-1.037-2.17-1.693-3.811-1.967c-0.82-0.113-3.281-0.17-7.383-0.17
					h-7.896V419.002z"/>
				<path d="M100.83,447.916l13.09-18.695l-12.543-17.602H113.1l6.426,9.98l6.768-9.98h11.279l-12.305,17.191l13.433,19.105h-11.792
					l-7.383-11.244l-7.451,11.244H100.83z"/>
			</g>
		</g>
		<g id="rx_2_" display="none">
			<g display="inline">
				<path d="M188.941,23.517l-0.028,17.889c-0.01,12.815-10.455,23.251-23.27,23.243L23.237,64.423
					C10.399,64.391-0.02,53.946,0,41.108l0.022-17.889C0.037,10.404,10.482-0.032,23.314,0L165.72,0.225
					C178.546,0.233,188.96,10.679,188.941,23.517L188.941,23.517z M189.363,104.3l-0.302,245.207
					c-0.011,12.229-9.989,22.15-22.219,22.141l-144.63-0.179c-12.218-0.011-22.151-9.967-22.141-22.197l0.307-245.205
					c0.016-12.23,9.972-22.175,22.202-22.164l144.631,0.179C179.429,82.115,189.373,92.047,189.363,104.3L189.363,104.3z
					 M172.337,158.79l-155.06-0.195l-0.181,136.166l155.072,0.195L172.337,158.79z M152.736,207.884"/>
			</g>
			<rect x="36.261" y="209.956" display="inline" width="116.842" height="39.024"/>
			<g display="inline">
				<path d="M54.996,447.916v-50.105h21.293c5.354,0,9.246,0.449,11.672,1.35s4.369,2.502,5.828,4.803
					c1.458,2.301,2.188,4.934,2.188,7.895c0,3.76-1.105,6.865-3.315,9.314c-2.21,2.449-5.515,3.994-9.912,4.631
					c2.188,1.275,3.993,2.678,5.417,4.203c1.424,1.527,3.344,4.238,5.759,8.135l6.118,9.775h-12.1l-7.314-10.902
					c-2.598-3.896-4.375-6.352-5.332-7.367c-0.957-1.012-1.971-1.709-3.042-2.084c-1.071-0.377-2.769-0.564-5.093-0.564h-2.051
					v20.918H54.996z M65.112,419.002h7.485c4.854,0,7.884-0.205,9.092-0.615c1.208-0.41,2.153-1.117,2.837-2.119
					s1.025-2.256,1.025-3.76c0-1.686-0.45-3.047-1.35-4.084c-0.9-1.037-2.17-1.693-3.811-1.967c-0.82-0.113-3.281-0.17-7.383-0.17
					h-7.896V419.002z"/>
				<path d="M100.83,447.916l13.09-18.695l-12.543-17.602H113.1l6.426,9.98l6.768-9.98h11.279l-12.305,17.191l13.433,19.105h-11.792
					l-7.383-11.244l-7.451,11.244H100.83z"/>
			</g>
		</g>
		<g id="eligibility" display="none">
			<path display="inline" d="M341.124-0.011H30.882C13.817-0.011,0,13.824,0,30.871v310.242c0,17.047,13.817,30.881,30.882,30.881
				h310.242c17.048,0,30.882-13.834,30.882-30.881V30.871C372.006,13.824,358.172-0.011,341.124-0.011z M150.059,290.277
				l-94.802-94.76l41.722-41.743l53.08,53.059L286.584,70.33l41.7,41.743L150.059,290.277z"/>
			<path display="inline" fill="#FFFFFF" d="M345.132,84.701"/>
			<g display="inline">
				<path d="M35.423,432.236V382.13h37.153v8.477H45.54v11.108h25.156v8.442H45.54v13.637h27.993v8.442H35.423z"/>
				<path d="M82.044,432.236V382.13h9.604v50.106H82.044z"/>
				<path d="M101.492,391.017v-8.887h9.604v8.887H101.492z M101.492,432.236v-36.298h9.604v36.298H101.492z"/>
				<path d="M120.051,434.629l10.972,1.333c0.182,1.275,0.604,2.153,1.265,2.632c0.911,0.684,2.346,1.025,4.306,1.025
					c2.506,0,4.386-0.376,5.64-1.128c0.843-0.502,1.481-1.311,1.914-2.427c0.296-0.798,0.444-2.268,0.444-4.409v-5.298
					c-2.871,3.92-6.494,5.879-10.869,5.879c-4.876,0-8.739-2.062-11.587-6.187c-2.233-3.258-3.35-7.314-3.35-12.168
					c0-6.083,1.464-10.731,4.392-13.944c2.928-3.213,6.568-4.819,10.92-4.819c4.489,0,8.191,1.972,11.108,5.913v-5.093h8.989v32.572
					c0,4.283-0.354,7.485-1.06,9.604c-0.707,2.119-1.698,3.782-2.974,4.99c-1.276,1.207-2.979,2.153-5.11,2.837
					c-2.131,0.684-4.825,1.025-8.083,1.025c-6.152,0-10.516-1.055-13.09-3.161c-2.575-2.108-3.862-4.78-3.862-8.016
					C120.017,435.472,120.028,435.084,120.051,434.629z M128.63,413.335c0,3.852,0.746,6.671,2.239,8.46
					c1.492,1.789,3.332,2.683,5.52,2.683c2.347,0,4.329-0.917,5.947-2.751c1.618-1.834,2.427-4.552,2.427-8.152
					c0-3.759-0.775-6.55-2.324-8.373c-1.55-1.822-3.509-2.734-5.879-2.734c-2.302,0-4.198,0.895-5.69,2.683
					C129.376,406.939,128.63,409.668,128.63,413.335z"/>
				<path d="M163.698,391.017v-8.887h9.604v8.887H163.698z M163.698,432.236v-36.298h9.604v36.298H163.698z"/>
				<path d="M182.736,432.236V382.13h9.604v18.047c2.962-3.372,6.471-5.059,10.527-5.059c4.42,0,8.078,1.602,10.972,4.803
					c2.894,3.201,4.341,7.799,4.341,13.79c0,6.198-1.476,10.972-4.426,14.321c-2.951,3.35-6.534,5.024-10.75,5.024
					c-2.074,0-4.119-0.519-6.135-1.555c-2.017-1.037-3.754-2.569-5.212-4.598v5.332H182.736z M192.272,413.301
					c0,3.76,0.592,6.54,1.777,8.34c1.663,2.553,3.874,3.828,6.631,3.828c2.119,0,3.925-0.906,5.417-2.717
					c1.492-1.813,2.239-4.666,2.239-8.563c0-4.146-0.752-7.137-2.256-8.972c-1.504-1.833-3.43-2.751-5.776-2.751
					c-2.302,0-4.216,0.895-5.742,2.683C193.035,406.939,192.272,409.656,192.272,413.301z"/>
				<path d="M225.904,391.017v-8.887h9.604v8.887H225.904z M225.904,432.236v-36.298h9.604v36.298H225.904z"/>
				<path d="M245.353,432.236V382.13h9.604v50.106H245.353z"/>
				<path d="M264.801,391.017v-8.887h9.604v8.887H264.801z M264.801,432.236v-36.298h9.604v36.298H264.801z"/>
				<path d="M300.895,395.938v7.656h-6.563v14.628c0,2.963,0.063,4.688,0.188,5.178c0.125,0.491,0.41,0.896,0.854,1.214
					c0.444,0.319,0.985,0.479,1.624,0.479c0.889,0,2.176-0.308,3.861-0.923l0.82,7.451c-2.232,0.957-4.762,1.436-7.588,1.436
					c-1.731,0-3.293-0.291-4.682-0.871c-1.391-0.582-2.41-1.334-3.06-2.256c-0.649-0.924-1.1-2.171-1.351-3.743
					c-0.205-1.116-0.307-3.372-0.307-6.768v-15.824h-4.41v-7.656h4.41v-7.212l9.639-5.605v12.817H300.895z"/>
				<path d="M303.014,395.938h10.219l8.682,25.771l8.477-25.771h9.946l-12.817,34.931l-2.289,6.323
					c-0.844,2.119-1.646,3.736-2.41,4.854c-0.764,1.116-1.641,2.021-2.632,2.718c-0.991,0.694-2.21,1.235-3.657,1.623
					c-1.447,0.387-3.082,0.581-4.904,0.581c-1.846,0-3.658-0.194-5.436-0.581l-0.854-7.52c1.504,0.296,2.859,0.444,4.066,0.444
					c2.233,0,3.885-0.655,4.957-1.966c1.07-1.311,1.891-2.979,2.461-5.007L303.014,395.938z"/>
			</g>
		</g>
		<g id="pending_rx" display="none">
			<path display="inline" fill="#FFFFFF" d="M190.028,242.963"/>
			<path display="inline" d="M827.791,175.616"/>
			<g display="inline">
				<path d="M297.424,0.279c-30.198,0-55.833,19.933-64.467,47.333H35.384C15.884,47.611,0,63.485,0,82.995v253.706
					c0,19.51,15.884,35.384,35.384,35.384h253.695c19.52,0,35.382-15.874,35.382-35.384V129.802
					c23.881-10.462,40.57-34.258,40.57-61.927C365.031,30.612,334.708,0.279,297.424,0.279z M244.689,293.854h2.916
					c5.362,0,9.716,4.323,9.716,9.694s-4.354,9.716-9.716,9.716H77.723c-5.361,0-9.695-4.345-9.695-9.716s4.334-9.694,9.695-9.694
					h2.896c3.349-37.783,25.469-66.785,42.662-87.376c-17.193-20.581-39.313-49.583-42.662-87.366h-2.896
					c-5.361,0-9.695-4.345-9.695-9.716c0-5.35,4.334-9.695,9.695-9.695h169.883c5.362,0,9.716,4.345,9.716,9.695
					c0,5.371-4.354,9.715-9.716,9.715h-2.916c-3.326,37.783-25.448,66.785-42.64,87.366
					C219.241,227.068,241.363,256.07,244.689,293.854z M315.394,118.844c-1.363,0.464-2.705,0.857-4.069,1.26
					c-0.227,0.062-0.495,0.124-0.723,0.166c-1.218,0.32-2.415,0.589-3.636,0.785c-0.599,0.134-1.259,0.196-1.879,0.299
					c-0.889,0.134-1.817,0.258-2.706,0.362c-1.652,0.134-3.264,0.227-4.957,0.227c-29.807,0-54.057-24.261-54.057-54.067
					c0-3.924,0.455-7.953,1.385-12.011c5.475-24.064,26.997-42.055,52.672-42.055c29.849,0,54.117,24.26,54.117,54.066
					C351.541,91.413,336.38,111.417,315.394,118.844z"/>
				<path d="M181.941,212.742c-3.04-3.626-3.04-8.904,0-12.519l0.883-1.037c16.576-19.636,38.759-45.938,42.415-80.054H100.09
					c3.657,34.117,25.839,60.418,42.415,80.054l0.883,1.037c3.06,3.615,3.06,8.914,0,12.519l-0.883,1.058
					c-16.576,19.636-38.758,45.927-42.415,80.054h125.149c-3.656-34.127-25.839-60.418-42.395-80.054L181.941,212.742z
					 M134.001,154.933c-0.534-1.479-0.308-3.123,0.616-4.406c0.925-1.284,2.383-2.064,3.944-2.064h48.186
					c1.581,0,3.061,0.781,3.964,2.064c0.924,1.284,1.15,2.927,0.616,4.406c-3.862,10.989-9.981,21.463-18.115,31.138
					c-3.656,4.344-5.669,9.849-5.669,15.529c0,2.69-2.219,4.857-4.868,4.857c-2.691,0-4.869-2.167-4.869-4.857
					c0-5.659-2.013-11.185-5.689-15.529C143.963,176.396,137.863,165.922,134.001,154.933z M215.421,279.312
					c0.861,1.52,0.861,3.358-0.042,4.847c-0.863,1.479-2.464,2.424-4.189,2.424h-97.071c-1.726,0-3.328-0.944-4.19-2.424
					c-0.863-1.488-0.883-3.327-0.02-4.847c7.722-13.68,19.882-26.702,36.108-38.697c7.6-5.597,11.79-12.54,11.79-19.554
					c0-2.67,2.178-4.837,4.869-4.837c2.649,0,4.868,2.146,4.868,4.837c0,7.014,4.149,13.957,11.769,19.544
					C195.559,252.609,207.698,265.632,215.421,279.312z"/>
				<path d="M167.543,221.061"/>
				<path d="M100.09,293.854"/>
			</g>
			<g display="inline">
				<path d="M0.452,432.236V382.13H14.9c5.476,0,9.045,0.251,10.708,0.752c2.555,0.752,4.694,2.388,6.418,4.904
					c1.724,2.519,2.586,5.771,2.586,9.759c0,3.076-0.498,5.663-1.491,7.759c-0.994,2.097-2.256,3.742-3.787,4.939
					c-1.532,1.194-3.088,1.987-4.669,2.374c-2.15,0.479-5.263,0.718-9.339,0.718H9.456v18.901H0.452z M9.456,390.606v14.219h4.928
					c3.549,0,5.921-0.262,7.118-0.786c1.196-0.523,2.134-1.344,2.814-2.461c0.679-1.116,1.019-2.415,1.019-3.896
					c0-1.822-0.477-3.326-1.43-4.512c-0.954-1.185-2.16-1.925-3.62-2.222c-1.075-0.228-3.235-0.342-6.479-0.342H9.456z"/>
				<path d="M59.094,420.684l8.518,1.606c-1.095,3.51-2.825,6.182-5.187,8.015c-2.363,1.835-5.318,2.752-8.867,2.752
					c-5.617,0-9.775-2.062-12.472-6.187c-2.129-3.304-3.194-7.474-3.194-12.51c0-6.015,1.399-10.726,4.198-14.133
					c2.798-3.405,6.337-5.109,10.616-5.109c4.806,0,8.598,1.783,11.377,5.35c2.778,3.566,4.106,9.029,3.985,16.388H46.653
					c0.061,2.849,0.75,5.064,2.068,6.648s2.96,2.375,4.928,2.375c1.338,0,2.464-0.41,3.376-1.23S58.627,422.507,59.094,420.684z
					 M59.581,410.978c-0.061-2.779-0.7-4.893-1.917-6.34s-2.697-2.171-4.441-2.171c-1.866,0-3.407,0.764-4.624,2.29
					c-1.217,1.527-1.815,3.601-1.795,6.221H59.581z"/>
				<path d="M102.862,432.236h-8.547v-18.525c0-3.918-0.183-6.453-0.548-7.604c-0.365-1.149-0.958-2.044-1.779-2.683
					c-0.821-0.638-1.81-0.957-2.966-0.957c-1.48,0-2.809,0.456-3.985,1.367c-1.176,0.912-1.982,2.119-2.418,3.623
					s-0.654,4.283-0.654,8.339v16.44h-8.548v-36.298h7.939v5.332c2.818-4.102,6.368-6.152,10.647-6.152
					c1.886,0,3.609,0.382,5.171,1.145c1.562,0.765,2.742,1.738,3.543,2.923c0.801,1.186,1.358,2.529,1.673,4.033
					s0.472,3.657,0.472,6.46V432.236z"/>
				<path d="M139.603,432.236h-7.939v-5.332c-1.318,2.074-2.875,3.618-4.669,4.631c-1.795,1.014-3.605,1.521-5.43,1.521
					c-3.711,0-6.89-1.68-9.537-5.041s-3.97-8.05-3.97-14.065c0-6.151,1.288-10.828,3.863-14.029c2.575-3.201,5.83-4.803,9.765-4.803
					c3.609,0,6.732,1.687,9.369,5.059V382.13h8.548V432.236z M116.788,413.301c0,3.874,0.477,6.677,1.43,8.408
					c1.379,2.507,3.306,3.76,5.78,3.76c1.967,0,3.64-0.939,5.02-2.82c1.379-1.879,2.068-4.688,2.068-8.425
					c0-4.169-0.669-7.171-2.008-9.006c-1.338-1.833-3.052-2.751-5.141-2.751c-2.028,0-3.727,0.905-5.095,2.718
					C117.472,406.995,116.788,409.702,116.788,413.301z"/>
				<path d="M146.472,391.017v-8.887h8.547v8.887H146.472z M146.472,432.236v-36.298h8.547v36.298H146.472z"/>
				<path d="M191.608,432.236h-8.548v-18.525c0-3.918-0.183-6.453-0.548-7.604c-0.365-1.149-0.958-2.044-1.779-2.683
					c-0.821-0.638-1.81-0.957-2.966-0.957c-1.48,0-2.809,0.456-3.985,1.367c-1.176,0.912-1.982,2.119-2.418,3.623
					s-0.654,4.283-0.654,8.339v16.44h-8.548v-36.298h7.939v5.332c2.818-4.102,6.368-6.152,10.647-6.152
					c1.886,0,3.609,0.382,5.171,1.145c1.562,0.765,2.743,1.738,3.544,2.923c0.801,1.186,1.358,2.529,1.673,4.033
					s0.472,3.657,0.472,6.46V432.236z"/>
				<path d="M197.929,434.629l9.765,1.333c0.162,1.275,0.537,2.153,1.125,2.632c0.811,0.684,2.088,1.025,3.833,1.025
					c2.23,0,3.903-0.376,5.019-1.128c0.75-0.502,1.318-1.311,1.704-2.427c0.263-0.798,0.396-2.268,0.396-4.409v-5.298
					c-2.556,3.92-5.78,5.879-9.674,5.879c-4.34,0-7.777-2.062-10.312-6.187c-1.988-3.258-2.981-7.314-2.981-12.168
					c0-6.083,1.302-10.731,3.909-13.944c2.605-3.213,5.845-4.819,9.719-4.819c3.995,0,7.29,1.972,9.886,5.913v-5.093h8v32.572
					c0,4.283-0.314,7.485-0.943,9.604s-1.511,3.782-2.646,4.99c-1.136,1.207-2.652,2.153-4.548,2.837
					c-1.896,0.684-4.294,1.025-7.194,1.025c-5.476,0-9.359-1.055-11.651-3.161c-2.292-2.108-3.438-4.78-3.438-8.016
					C197.898,435.472,197.908,435.084,197.929,434.629z M205.564,413.335c0,3.852,0.664,6.671,1.992,8.46
					c1.328,1.789,2.966,2.683,4.913,2.683c2.088,0,3.853-0.917,5.293-2.751c1.439-1.834,2.16-4.552,2.16-8.152
					c0-3.759-0.689-6.55-2.068-8.373c-1.379-1.822-3.124-2.734-5.232-2.734c-2.048,0-3.737,0.895-5.065,2.683
					C206.228,406.939,205.564,409.668,205.564,413.335z"/>
				<path d="M251.371,432.236V382.13h18.952c4.766,0,8.229,0.45,10.388,1.35c2.16,0.901,3.889,2.502,5.188,4.803
					c1.297,2.302,1.947,4.934,1.947,7.896c0,3.76-0.984,6.865-2.951,9.313c-1.967,2.45-4.908,3.994-8.822,4.632
					c1.947,1.275,3.555,2.677,4.822,4.203c1.267,1.527,2.976,4.238,5.125,8.135l5.445,9.775h-10.769l-6.51-10.903
					c-2.312-3.896-3.894-6.352-4.745-7.366c-0.852-1.013-1.755-1.709-2.708-2.084c-0.953-0.377-2.464-0.564-4.532-0.564h-1.825
					v20.918H251.371z M260.376,403.321h6.662c4.319,0,7.017-0.205,8.091-0.615c1.075-0.41,1.917-1.116,2.525-2.119
					c0.608-1.002,0.912-2.256,0.912-3.76c0-1.686-0.4-3.047-1.201-4.084s-1.932-1.692-3.392-1.966
					c-0.729-0.113-2.921-0.171-6.571-0.171h-7.026V403.321z"/>
				<path d="M292.04,432.236l11.649-18.696l-11.163-17.602h10.434l5.72,9.98l6.022-9.98h10.038l-10.951,17.191l11.955,19.106H315.25
					l-6.57-11.245l-6.633,11.245H292.04z"/>
			</g>
		</g>
		<g id="Eligibility" display="none">
			<path display="inline" d="M411.868,328.006c5.596,9.832,5.837,21.059,0.688,29.943c-5.167,8.903-15.019,14.313-26.338,14.313
				H31.039c-11.319,0-21.171-5.409-26.337-14.313c-5.167-8.885-4.907-20.167,0.687-30.018L183.137,15.818
				C188.768,5.911,198.304,0,208.619,0c10.334,0,19.852,5.938,25.502,15.846L411.868,328.006L411.868,328.006z M207.449,99.877
				c-13.588,0-24.628,11.031-24.628,24.646v88.679c0,13.606,11.041,24.627,24.628,24.627c13.605,0,24.646-11.021,24.646-24.627
				v-88.679C232.095,110.909,221.054,99.877,207.449,99.877L207.449,99.877z M208.619,265.674
				c-13.605,0-24.627,11.031-24.627,24.637c0,13.606,11.022,24.646,24.627,24.646c13.624,0,24.646-11.04,24.646-24.646
				C233.266,276.705,222.243,265.674,208.619,265.674L208.619,265.674z M208.619,265.674"/>
			<g display="inline">
				<path d="M58.054,432.236V382.13h37.153v8.477H68.171v11.108h25.156v8.442H68.171v13.637h27.993v8.442H58.054z"/>
				<path d="M104.675,432.236V382.13h9.604v50.106H104.675z"/>
				<path d="M124.123,391.017v-8.887h9.604v8.887H124.123z M124.123,432.236v-36.298h9.604v36.298H124.123z"/>
				<path d="M142.682,434.629l10.972,1.333c0.182,1.275,0.604,2.153,1.265,2.632c0.911,0.684,2.346,1.025,4.306,1.025
					c2.506,0,4.386-0.376,5.64-1.128c0.843-0.502,1.481-1.311,1.914-2.427c0.296-0.798,0.444-2.268,0.444-4.409v-5.298
					c-2.871,3.92-6.494,5.879-10.869,5.879c-4.876,0-8.739-2.062-11.587-6.187c-2.233-3.258-3.35-7.314-3.35-12.168
					c0-6.083,1.464-10.731,4.392-13.944c2.928-3.213,6.568-4.819,10.92-4.819c4.489,0,8.191,1.972,11.108,5.913v-5.093h8.989v32.572
					c0,4.283-0.354,7.485-1.06,9.604c-0.707,2.119-1.698,3.782-2.974,4.99c-1.276,1.207-2.979,2.153-5.11,2.837
					c-2.131,0.684-4.825,1.025-8.083,1.025c-6.152,0-10.516-1.055-13.09-3.161c-2.575-2.108-3.862-4.78-3.862-8.016
					C142.648,435.472,142.659,435.084,142.682,434.629z M151.261,413.335c0,3.852,0.746,6.671,2.239,8.46
					c1.492,1.789,3.332,2.683,5.52,2.683c2.347,0,4.329-0.917,5.947-2.751c1.618-1.834,2.427-4.552,2.427-8.152
					c0-3.759-0.775-6.55-2.324-8.373c-1.55-1.822-3.509-2.734-5.879-2.734c-2.302,0-4.198,0.895-5.69,2.683
					C152.007,406.939,151.261,409.668,151.261,413.335z"/>
				<path d="M186.329,391.017v-8.887h9.604v8.887H186.329z M186.329,432.236v-36.298h9.604v36.298H186.329z"/>
				<path d="M205.367,432.236V382.13h9.604v18.047c2.962-3.372,6.471-5.059,10.527-5.059c4.421,0,8.078,1.602,10.973,4.803
					c2.893,3.201,4.34,7.799,4.34,13.79c0,6.198-1.475,10.972-4.426,14.321s-6.534,5.024-10.75,5.024
					c-2.073,0-4.118-0.519-6.135-1.555c-2.017-1.037-3.754-2.569-5.212-4.598v5.332H205.367z M214.903,413.301
					c0,3.76,0.592,6.54,1.777,8.34c1.663,2.553,3.874,3.828,6.631,3.828c2.119,0,3.925-0.906,5.417-2.717
					c1.492-1.813,2.238-4.666,2.238-8.563c0-4.146-0.752-7.137-2.256-8.972c-1.504-1.833-3.43-2.751-5.776-2.751
					c-2.302,0-4.216,0.895-5.742,2.683C215.666,406.939,214.903,409.656,214.903,413.301z"/>
				<path d="M248.535,391.017v-8.887h9.604v8.887H248.535z M248.535,432.236v-36.298h9.604v36.298H248.535z"/>
				<path d="M267.983,432.236V382.13h9.604v50.106H267.983z"/>
				<path d="M287.432,391.017v-8.887h9.604v8.887H287.432z M287.432,432.236v-36.298h9.604v36.298H287.432z"/>
				<path d="M323.525,395.938v7.656h-6.563v14.628c0,2.963,0.063,4.688,0.188,5.178c0.125,0.491,0.41,0.896,0.854,1.214
					c0.444,0.319,0.985,0.479,1.624,0.479c0.889,0,2.176-0.308,3.861-0.923l0.82,7.451c-2.232,0.957-4.762,1.436-7.588,1.436
					c-1.731,0-3.293-0.291-4.682-0.871c-1.391-0.582-2.41-1.334-3.06-2.256c-0.649-0.924-1.1-2.171-1.351-3.743
					c-0.205-1.116-0.307-3.372-0.307-6.768v-15.824h-4.41v-7.656h4.41v-7.212l9.639-5.605v12.817H323.525z"/>
				<path d="M325.645,395.938h10.219l8.682,25.771l8.477-25.771h9.946l-12.817,34.931l-2.289,6.323
					c-0.844,2.119-1.646,3.736-2.41,4.854c-0.764,1.116-1.641,2.021-2.632,2.718c-0.991,0.694-2.21,1.235-3.657,1.623
					c-1.447,0.387-3.082,0.581-4.904,0.581c-1.846,0-3.658-0.194-5.436-0.581l-0.854-7.52c1.504,0.296,2.859,0.444,4.066,0.444
					c2.233,0,3.885-0.655,4.957-1.966c1.07-1.311,1.891-2.979,2.461-5.007L325.645,395.938z"/>
			</g>
		</g>
		<g id="Create_new_Rx" display="none">
			<g display="inline">
				<g>
					<path fill-rule="evenodd" clip-rule="evenodd" d="M77.588,259.349c-26.241,0-51.158,0-76.587,0c0-86.25,0-172.237,0-258.787
						C2.499,0.412,4.109,0,5.708,0c47.2,0.112,94.376,0.038,141.565,0.487c9.912,0.075,19.899,1.348,29.636,3.071
						c34.056,6.179,55.104,33.818,53.48,69.546c-1.598,35.916-20.574,59.51-55.465,69.023c-2.384,0.636-4.731,1.423-7.265,2.172
						c21.122,31.684,41.945,62.993,63.454,95.275c3.521-5.243,6.217-9.176,8.839-13.183c8.188-12.546,16.304-25.205,24.643-37.713
						c1.148-1.686,3.37-3.746,5.118-3.746c23.645-0.262,47.264-0.188,72.206-0.188c-1.836,2.809-2.997,4.645-4.271,6.479
						c-17.876,25.466-35.652,50.97-53.779,76.25c-3.296,4.607-3.782,7.641-0.274,12.584c19.699,28.051,38.925,56.439,58.324,84.714
						c1.298,1.873,2.472,3.821,4.231,6.518c-2.459,0.262-4.194,0.599-5.93,0.599c-22.445,0-44.891-0.112-67.312,0.112
						c-4.47,0.075-6.791-1.536-8.863-5.355c-9.238-16.853-18.801-33.556-28.239-50.335c-1.147-1.984-2.371-3.932-4.069-6.815
						c-1.686,2.359-2.996,4.119-4.194,5.955c-11.484,17.265-22.87,34.567-34.554,51.683c-1.423,2.134-4.37,4.531-6.642,4.568
						c-22.208,0.3-44.442,0.188-66.663,0.15c-0.599,0-1.223-0.3-2.671-0.712c1.361-2.098,2.472-4.007,3.72-5.806
						c19.674-28.836,39.298-57.748,59.123-86.474c2.559-3.67,2.646-6.18,0.1-9.999c-23.045-34.193-46.165-68.386-68.585-103.028
						c-6.03-9.363-13.357-13.557-24.068-12.921c-2.934,0.15-5.893,0-9.712,0C77.588,188.454,77.588,223.62,77.588,259.349z
						 M77.738,106.323c20.323-0.112,40.397,1.948,59.846-4.569c9.913-3.296,16.129-13.632,15.805-25.055
						c-0.337-12.434-6.317-21.347-17.564-24.231c-19.087-4.869-38.512-1.872-58.086-2.621
						C77.738,68.985,77.738,87.298,77.738,106.323z"/>
				</g>
				<g>
					<path d="M331.322,1.031c-45.628,0-82.616,37.001-82.616,82.617c0,45.641,36.988,82.617,82.616,82.617
						s82.63-36.977,82.63-82.617C413.952,38.032,376.95,1.031,331.322,1.031z M346.738,98.029v47.912l-31.934-0.012l0.013-47.862
						l-47.9-0.025l0.025-31.896l47.875-0.025l0.013-47.875l31.896-0.013l0.013,47.913l47.875-0.025l0.012,31.92L346.738,98.029z"/>
				</g>
			</g>
			<g display="inline">
				<path d="M30.243,428.826l8.535,3.109c-1.309,5.469-3.484,9.531-6.527,12.186c-3.043,2.654-6.904,3.982-11.583,3.982
					c-5.789,0-10.546-2.273-14.273-6.82c-3.727-4.545-5.59-10.76-5.59-18.643c0-8.34,1.874-14.816,5.62-19.432
					c3.747-4.613,8.673-6.922,14.779-6.922c5.333,0,9.664,1.813,12.995,5.436c1.982,2.143,3.469,5.219,4.46,9.229l-8.713,2.393
					c-0.516-2.598-1.591-4.648-3.226-6.152c-1.636-1.504-3.624-2.256-5.962-2.256c-3.231,0-5.854,1.332-7.865,3.998
					c-2.012,2.666-3.018,6.984-3.018,12.955c0,6.334,0.991,10.846,2.974,13.533c1.982,2.689,4.559,4.033,7.731,4.033
					c2.339,0,4.351-0.854,6.036-2.563S29.509,432.494,30.243,428.826z"/>
				<path d="M53.355,447.248H45v-36.297h7.761v5.16c1.328-2.438,2.522-4.043,3.583-4.818c1.06-0.775,2.265-1.162,3.613-1.162
					c1.903,0,3.737,0.604,5.501,1.811l-2.587,8.375c-1.408-1.049-2.716-1.572-3.925-1.572c-1.17,0-2.161,0.371-2.974,1.111
					c-0.813,0.74-1.453,2.078-1.918,4.016c-0.466,1.938-0.699,5.992-0.699,12.166V447.248z"/>
				<path d="M86.431,435.695l8.326,1.607c-1.071,3.51-2.761,6.182-5.07,8.014c-2.31,1.836-5.199,2.752-8.668,2.752
					c-5.492,0-9.556-2.061-12.192-6.186c-2.082-3.305-3.123-7.475-3.123-12.51c0-6.016,1.368-10.727,4.104-14.133
					s6.195-5.109,10.378-5.109c4.698,0,8.405,1.783,11.121,5.35s4.015,9.029,3.896,16.387H74.269c0.06,2.85,0.733,5.064,2.022,6.648
					c1.289,1.584,2.894,2.375,4.817,2.375c1.308,0,2.409-0.41,3.301-1.23S85.975,437.52,86.431,435.695z M86.907,425.99
					c-0.06-2.779-0.684-4.893-1.873-6.34s-2.637-2.172-4.342-2.172c-1.824,0-3.331,0.764-4.52,2.291s-1.774,3.6-1.754,6.221H86.907z
					"/>
				<path d="M107.343,422.025l-7.582-1.572c0.852-3.51,2.319-6.107,4.4-7.793s5.174-2.529,9.278-2.529
					c3.727,0,6.502,0.508,8.326,1.521c1.824,1.014,3.107,2.301,3.851,3.861c0.744,1.561,1.115,4.426,1.115,8.596l-0.089,11.211
					c0,3.189,0.134,5.543,0.402,7.057c0.268,1.518,0.768,3.141,1.501,4.871h-8.267c-0.218-0.637-0.486-1.582-0.803-2.836
					c-0.139-0.57-0.238-0.945-0.297-1.129c-1.428,1.596-2.955,2.793-4.58,3.59c-1.626,0.797-3.36,1.195-5.204,1.195
					c-3.251,0-5.813-1.014-7.687-3.041s-2.81-4.592-2.81-7.691c0-2.051,0.426-3.879,1.278-5.486
					c0.853-1.605,2.046-2.836,3.583-3.691c1.536-0.854,3.751-1.6,6.646-2.236c3.905-0.844,6.611-1.629,8.118-2.359v-0.957
					c0-1.846-0.397-3.16-1.189-3.947c-0.793-0.785-2.29-1.18-4.49-1.18c-1.487,0-2.646,0.338-3.479,1.01
					C108.533,419.16,107.859,420.34,107.343,422.025z M118.524,429.816c-1.071,0.41-2.766,0.9-5.085,1.471s-3.836,1.127-4.55,1.674
					c-1.09,0.889-1.635,2.018-1.635,3.385c0,1.344,0.436,2.506,1.308,3.486c0.872,0.98,1.982,1.469,3.331,1.469
					c1.506,0,2.944-0.568,4.312-1.709c1.011-0.865,1.675-1.924,1.992-3.178c0.218-0.82,0.327-2.381,0.327-4.684V429.816z"/>
				<path d="M148.537,410.951v7.656h-5.709v14.627c0,2.963,0.054,4.689,0.164,5.178c0.108,0.492,0.357,0.896,0.743,1.215
					c0.387,0.318,0.857,0.479,1.413,0.479c0.773,0,1.893-0.309,3.36-0.924l0.713,7.451c-1.943,0.957-4.144,1.436-6.601,1.436
					c-1.507,0-2.865-0.291-4.074-0.871c-1.209-0.582-2.096-1.334-2.661-2.256c-0.565-0.924-0.957-2.17-1.175-3.742
					c-0.178-1.117-0.268-3.373-0.268-6.768v-15.824h-3.836v-7.656h3.836v-7.213l8.386-5.605v12.818H148.537z"/>
				<path d="M171.709,435.695l8.326,1.607c-1.071,3.51-2.761,6.182-5.07,8.014c-2.31,1.836-5.199,2.752-8.668,2.752
					c-5.492,0-9.556-2.061-12.192-6.186c-2.082-3.305-3.123-7.475-3.123-12.51c0-6.016,1.368-10.727,4.104-14.133
					s6.195-5.109,10.378-5.109c4.698,0,8.405,1.783,11.121,5.35s4.015,9.029,3.896,16.387h-20.934
					c0.06,2.85,0.733,5.064,2.022,6.648c1.289,1.584,2.894,2.375,4.817,2.375c1.308,0,2.409-0.41,3.301-1.23
					S171.252,437.52,171.709,435.695z M172.185,425.99c-0.06-2.779-0.684-4.893-1.873-6.34s-2.637-2.172-4.342-2.172
					c-1.824,0-3.331,0.764-4.52,2.291s-1.774,3.6-1.754,6.221H172.185z"/>
				<path d="M202.532,447.248v-50.105h8.564l17.841,33.461v-33.461h8.178v50.105h-8.832l-17.574-32.674v32.674H202.532z"/>
				<path d="M263.737,435.695l8.326,1.607c-1.071,3.51-2.761,6.182-5.07,8.014c-2.31,1.836-5.199,2.752-8.668,2.752
					c-5.491,0-9.556-2.061-12.191-6.186c-2.081-3.305-3.122-7.475-3.122-12.51c0-6.016,1.367-10.727,4.104-14.133
					c2.735-3.406,6.194-5.109,10.377-5.109c4.699,0,8.406,1.783,11.121,5.35c2.717,3.566,4.016,9.029,3.896,16.387h-20.935
					c0.06,2.85,0.733,5.064,2.022,6.648c1.288,1.584,2.894,2.375,4.816,2.375c1.309,0,2.409-0.41,3.301-1.23
					C262.607,438.84,263.281,437.52,263.737,435.695z M264.213,425.99c-0.06-2.779-0.684-4.893-1.873-6.34s-2.637-2.172-4.342-2.172
					c-1.824,0-3.33,0.764-4.52,2.291s-1.775,3.6-1.755,6.221H264.213z"/>
				<path d="M284.293,447.248l-9.991-36.297h8.118l5.918,23.787l5.441-23.787h8.059l5.263,23.787l6.036-23.787h8.236l-10.139,36.297
					h-8.029l-5.441-23.344l-5.353,23.344H284.293z"/>
				<path d="M340.957,447.248v-50.105h18.525c4.658,0,8.045,0.449,10.156,1.35c2.109,0.9,3.799,2.502,5.068,4.803
					c1.268,2.301,1.902,4.934,1.902,7.895c0,3.76-0.961,6.865-2.885,9.314c-1.922,2.449-4.797,3.994-8.621,4.631
					c1.902,1.275,3.473,2.678,4.711,4.203c1.24,1.527,2.91,4.238,5.012,8.135l5.322,9.775h-10.525l-6.363-10.902
					c-2.26-3.896-3.807-6.352-4.639-7.367c-0.834-1.012-1.715-1.709-2.646-2.084c-0.934-0.377-2.41-0.564-4.432-0.564h-1.783v20.918
					H340.957z M349.76,418.334h6.512c4.223,0,6.859-0.205,7.91-0.615s1.873-1.117,2.467-2.119c0.596-1.002,0.893-2.256,0.893-3.76
					c0-1.686-0.391-3.047-1.174-4.084s-1.889-1.693-3.316-1.967c-0.713-0.113-2.854-0.17-6.422-0.17h-6.869V418.334z"/>
				<path d="M379.918,447.248l11.391-18.695l-10.914-17.602h10.199l5.592,9.98l5.887-9.98h9.813l-10.705,17.191l11.688,19.105
					h-10.26l-6.422-11.244l-6.484,11.244H379.918z"/>
			</g>
		</g>
		<g id="messages">
			<g>
				<path d="M298.156,0c-30.271,0-55.979,19.981-64.623,47.448H35.469C15.913,47.448,0,63.36,0,82.917v254.321
					c0,19.558,15.913,35.47,35.469,35.47h254.322c19.557,0,35.469-15.912,35.469-35.47V129.837
					c23.927-10.487,40.667-34.341,40.667-62.077C365.927,30.407,335.521,0,298.156,0z M270.504,278.361
					c0,7.692-6.264,13.955-13.956,13.955l-195.166,0.001c-7.713,0-13.955-6.264-13.955-13.956V138.969
					c0-7.713,6.242-13.966,13.955-13.966h195.166c7.692,0,13.956,6.253,13.956,13.966V278.361z M316.161,118.853
					c-1.356,0.466-2.714,0.859-4.069,1.263c-0.239,0.062-0.497,0.124-0.735,0.166c-1.222,0.321-2.411,0.59-3.635,0.787
					c-0.599,0.135-1.261,0.197-1.883,0.3c-0.901,0.135-1.822,0.259-2.714,0.363c-1.656,0.134-3.281,0.228-4.969,0.228
					c-29.878,0-54.197-24.319-54.197-54.198c0-3.934,0.465-7.972,1.387-12.04c5.498-24.123,27.073-42.158,52.811-42.158
					c29.91,0,54.24,24.319,54.24,54.198C352.396,91.355,337.208,111.409,316.161,118.853z" fill="#205366"/>
				<polygon points="61.382,178.569 61.382,268.495 114.887,214.99 				" fill="#205366"/>
				<polygon points="158.981,244.941 126.597,222.952 71.25,278.361 246.671,278.361 191.199,222.817 				" fill="#205366"/>
				<polygon points="256.548,268.495 256.548,177.823 202.836,214.783 				" fill="#205366"/>
				<polygon points="61.382,161.755 158.909,228.057 256.278,161.072 256.548,161.497 256.548,138.969 61.382,138.969 				" fill="#205366"/>
			</g>
			<g>
				<path d="M0.925,433.322v-50.107h15.097l9.065,34.18l8.963-34.18h15.131v50.107H39.81v-39.443l-9.917,39.443H20.18l-9.883-39.443
					v39.443H0.925z" fill="#205366"/>
				<path d="M80.091,421.77l9.542,1.606c-1.227,3.51-3.164,6.182-5.811,8.015c-2.647,1.835-5.958,2.752-9.934,2.752
					c-6.293,0-10.951-2.062-13.973-6.187c-2.386-3.304-3.578-7.474-3.578-12.51c0-6.016,1.567-10.727,4.703-14.134
					c3.135-3.405,7.1-5.109,11.894-5.109c5.385,0,9.633,1.783,12.746,5.35s4.601,9.029,4.464,16.389H66.153
					c0.068,2.849,0.84,5.064,2.317,6.648c1.477,1.584,3.317,2.375,5.521,2.375c1.5,0,2.76-0.41,3.783-1.23
					S79.568,423.593,80.091,421.77z M80.637,412.063c-0.068-2.779-0.784-4.893-2.147-6.34s-3.022-2.171-4.976-2.171
					c-2.091,0-3.817,0.764-5.18,2.29c-1.363,1.527-2.034,3.601-2.011,6.221H80.637z" fill="#205366"/>
				<path d="M94.575,422.966l9.61-1.47c0.409,1.869,1.238,3.287,2.488,4.256c1.249,0.969,2.999,1.452,5.248,1.452
					c2.476,0,4.339-0.455,5.589-1.367c0.84-0.638,1.261-1.492,1.261-2.563c0-0.729-0.228-1.333-0.682-1.812
					c-0.477-0.455-1.545-0.877-3.204-1.265c-7.725-1.709-12.621-3.27-14.688-4.683c-2.863-1.959-4.294-4.683-4.294-8.169
					c0-3.145,1.238-5.787,3.715-7.93c2.476-2.142,6.315-3.213,11.519-3.213c4.953,0,8.633,0.81,11.042,2.427
					c2.408,1.618,4.067,4.011,4.976,7.178l-9.031,1.675c-0.387-1.412-1.119-2.495-2.198-3.247s-2.619-1.128-4.618-1.128
					c-2.522,0-4.328,0.354-5.418,1.06c-0.728,0.502-1.091,1.151-1.091,1.948c0,0.684,0.318,1.265,0.955,1.743
					c0.863,0.639,3.845,1.538,8.946,2.7c5.1,1.162,8.661,2.587,10.684,4.272c1.999,1.709,2.999,4.091,2.999,7.144
					c0,3.327-1.386,6.187-4.158,8.579c-2.772,2.393-6.873,3.589-12.303,3.589c-4.93,0-8.832-1.002-11.706-3.008
					C97.341,429.13,95.461,426.407,94.575,422.966z" fill="#205366"/>
				<path d="M133.391,422.966l9.61-1.47c0.409,1.869,1.238,3.287,2.488,4.256c1.249,0.969,2.999,1.452,5.248,1.452
					c2.476,0,4.339-0.455,5.589-1.367c0.84-0.638,1.261-1.492,1.261-2.563c0-0.729-0.228-1.333-0.682-1.812
					c-0.477-0.455-1.545-0.877-3.204-1.265c-7.725-1.709-12.621-3.27-14.688-4.683c-2.863-1.959-4.294-4.683-4.294-8.169
					c0-3.145,1.238-5.787,3.715-7.93c2.476-2.142,6.315-3.213,11.519-3.213c4.953,0,8.633,0.81,11.042,2.427
					c2.408,1.618,4.067,4.011,4.976,7.178l-9.031,1.675c-0.387-1.412-1.119-2.495-2.198-3.247s-2.619-1.128-4.618-1.128
					c-2.522,0-4.328,0.354-5.418,1.06c-0.728,0.502-1.091,1.151-1.091,1.948c0,0.684,0.318,1.265,0.955,1.743
					c0.863,0.639,3.845,1.538,8.946,2.7c5.1,1.162,8.661,2.587,10.684,4.272c1.999,1.709,2.999,4.091,2.999,7.144
					c0,3.327-1.386,6.187-4.158,8.579c-2.772,2.393-6.873,3.589-12.303,3.589c-4.93,0-8.832-1.002-11.706-3.008
					C136.157,429.13,134.277,426.407,133.391,422.966z" fill="#205366"/>
				<path d="M182.738,408.098l-8.69-1.572c0.977-3.509,2.658-6.106,5.044-7.793c2.385-1.686,5.93-2.529,10.632-2.529
					c4.271,0,7.452,0.508,9.542,1.521c2.09,1.014,3.561,2.302,4.413,3.861c0.852,1.562,1.278,4.427,1.278,8.597l-0.102,11.211
					c0,3.19,0.153,5.543,0.46,7.058c0.307,1.517,0.88,3.14,1.721,4.871h-9.474c-0.25-0.638-0.557-1.583-0.92-2.837
					c-0.16-0.569-0.273-0.945-0.341-1.128c-1.636,1.596-3.386,2.792-5.249,3.589s-3.851,1.196-5.964,1.196
					c-3.726,0-6.662-1.014-8.809-3.042c-2.147-2.027-3.221-4.591-3.221-7.69c0-2.051,0.488-3.879,1.465-5.486
					c0.977-1.605,2.346-2.836,4.106-3.691c1.761-0.854,4.299-1.6,7.617-2.238c4.476-0.843,7.577-1.629,9.304-2.358v-0.957
					c0-1.846-0.455-3.161-1.363-3.948c-0.909-0.785-2.624-1.179-5.146-1.179c-1.704,0-3.033,0.337-3.987,1.009
					C184.101,405.232,183.329,406.412,182.738,408.098z M195.552,415.891c-1.227,0.41-3.169,0.9-5.828,1.47
					c-2.658,0.57-4.396,1.128-5.214,1.675c-1.25,0.889-1.875,2.017-1.875,3.384c0,1.345,0.5,2.507,1.5,3.486
					c1,0.98,2.271,1.47,3.817,1.47c1.727,0,3.374-0.569,4.941-1.709c1.159-0.865,1.92-1.925,2.283-3.179
					c0.25-0.82,0.375-2.381,0.375-4.683V415.891z" fill="#205366"/>
				<path d="M213.511,435.715l10.939,1.333c0.182,1.275,0.602,2.153,1.261,2.632c0.908,0.684,2.34,1.025,4.294,1.025
					c2.499,0,4.373-0.376,5.623-1.128c0.84-0.502,1.477-1.311,1.908-2.427c0.295-0.798,0.443-2.268,0.443-4.409v-5.298
					c-2.863,3.92-6.476,5.879-10.838,5.879c-4.862,0-8.713-2.062-11.552-6.187c-2.227-3.258-3.34-7.314-3.34-12.168
					c0-6.084,1.459-10.732,4.379-13.945s6.549-4.819,10.888-4.819c4.476,0,8.168,1.972,11.076,5.913v-5.093h8.963v32.573
					c0,4.283-0.353,7.485-1.057,9.604s-1.692,3.782-2.965,4.99c-1.272,1.207-2.971,2.153-5.095,2.837
					c-2.125,0.684-4.812,1.025-8.06,1.025c-6.135,0-10.485-1.055-13.053-3.161c-2.568-2.108-3.851-4.78-3.851-8.016
					C213.477,436.558,213.488,436.17,213.511,435.715z M222.065,414.421c0,3.852,0.744,6.671,2.232,8.46
					c1.488,1.789,3.323,2.683,5.503,2.683c2.34,0,4.316-0.917,5.93-2.751s2.42-4.552,2.42-8.152c0-3.76-0.772-6.551-2.317-8.374
					c-1.545-1.822-3.499-2.734-5.861-2.734c-2.295,0-4.187,0.895-5.674,2.683C222.809,408.024,222.065,410.753,222.065,414.421z" fill="#205366"/>
				<path d="M277.989,421.77l9.542,1.606c-1.228,3.51-3.164,6.182-5.811,8.015c-2.647,1.835-5.959,2.752-9.935,2.752
					c-6.293,0-10.951-2.062-13.972-6.187c-2.386-3.304-3.579-7.474-3.579-12.51c0-6.016,1.568-10.727,4.703-14.134
					c3.136-3.405,7.1-5.109,11.894-5.109c5.385,0,9.633,1.783,12.746,5.35c3.112,3.566,4.601,9.029,4.464,16.389h-23.991
					c0.067,2.849,0.84,5.064,2.317,6.648c1.477,1.584,3.316,2.375,5.521,2.375c1.499,0,2.761-0.41,3.783-1.23
					S277.466,423.593,277.989,421.77z M278.534,412.063c-0.068-2.779-0.784-4.893-2.147-6.34c-1.362-1.447-3.021-2.171-4.976-2.171
					c-2.09,0-3.816,0.764-5.18,2.29c-1.363,1.527-2.033,3.601-2.011,6.221H278.534z" fill="#205366"/>
				<path d="M292.473,422.966l9.61-1.47c0.409,1.869,1.238,3.287,2.488,4.256c1.249,0.969,2.998,1.452,5.248,1.452
					c2.476,0,4.339-0.455,5.589-1.367c0.84-0.638,1.261-1.492,1.261-2.563c0-0.729-0.228-1.333-0.682-1.812
					c-0.477-0.455-1.545-0.877-3.203-1.265c-7.725-1.709-12.621-3.27-14.688-4.683c-2.862-1.959-4.294-4.683-4.294-8.169
					c0-3.145,1.238-5.787,3.715-7.93c2.476-2.142,6.315-3.213,11.519-3.213c4.953,0,8.633,0.81,11.042,2.427
					c2.407,1.618,4.066,4.011,4.976,7.178l-9.031,1.675c-0.387-1.412-1.119-2.495-2.198-3.247s-2.619-1.128-4.617-1.128
					c-2.522,0-4.328,0.354-5.419,1.06c-0.728,0.502-1.091,1.151-1.091,1.948c0,0.684,0.318,1.265,0.954,1.743
					c0.863,0.639,3.846,1.538,8.946,2.7c5.1,1.162,8.661,2.587,10.684,4.272c1.999,1.709,2.999,4.091,2.999,7.144
					c0,3.327-1.386,6.187-4.157,8.579c-2.772,2.393-6.873,3.589-12.303,3.589c-4.931,0-8.833-1.002-11.706-3.008
					C295.238,429.13,293.358,426.407,292.473,422.966z" fill="#205366"/>
			</g>
		</g>
		<g id="pharmacy" display="none">
			<g display="inline">
				<g>
					<path d="M185.971,371.938C83.426,371.938,0,288.512,0,185.972C0,83.427,83.426,0.001,185.971,0.001
						c102.555,0,185.986,83.426,185.986,185.971C371.957,288.512,288.525,371.938,185.971,371.938z M185.971,20.868
						c-91.037,0-165.104,74.067-165.104,165.104c0,91.037,74.067,165.099,165.104,165.099c91.048,0,165.119-74.062,165.119-165.099
						C351.09,94.935,277.019,20.868,185.971,20.868z"/>
				</g>
				<g>
					<path d="M287.044,102.816c-1.834-1.829-3.994-2.746-6.501-2.746h-46.165v-41.54c0-3.847-1.335-7.132-4.046-9.817
						c-2.669-2.689-5.95-4.04-9.801-4.04h-64.633c-3.851,0-7.122,1.35-9.807,4.04c-2.7,2.695-4.05,5.971-4.05,9.817v41.54h-46.17
						c-2.491,0-4.656,0.917-6.49,2.75c-1.824,1.829-2.735,3.984-2.735,6.486v184.677c0,2.507,0.912,4.656,2.735,6.5
						c1.839,1.814,4,2.73,6.49,2.73h184.683c2.496,0,4.656-0.916,6.49-2.73c1.833-1.854,2.751-3.993,2.751-6.5V109.312
						C289.795,106.805,288.877,104.65,287.044,102.816L287.044,102.816z M271.312,284.752h-55.396v-32.318
						c0-1.254-0.458-2.323-1.354-3.261c-0.938-0.907-2.018-1.365-3.261-1.365h-46.165c-1.253,0-2.338,0.458-3.245,1.365
						c-0.922,0.938-1.37,2.007-1.37,3.261v32.318h-55.402v-166.21h36.934v4.621c0,3.836,1.34,7.111,4.04,9.812
						c2.685,2.685,5.966,4.04,9.812,4.04h64.627c3.851,0,7.132-1.355,9.801-4.04c2.711-2.7,4.046-5.976,4.046-9.812v-4.621h36.934
						V284.752z M271.312,284.752 M137.426,229.346H128.2c-1.253,0-2.328,0.459-3.25,1.365c-0.912,0.917-1.375,1.997-1.375,3.25v9.23
						c0,1.254,0.463,2.334,1.375,3.251c0.922,0.917,1.997,1.365,3.25,1.365h9.226c1.248,0,2.338-0.448,3.255-1.365
						s1.36-1.997,1.36-3.251v-9.23c0-1.253-0.443-2.333-1.36-3.25C139.765,229.805,138.674,229.346,137.426,229.346L137.426,229.346
						z M137.426,229.346 M137.426,192.406H128.2c-1.253,0-2.328,0.463-3.25,1.376c-0.912,0.902-1.375,2.001-1.375,3.245v9.231
						c0,1.254,0.463,2.333,1.375,3.261c0.922,0.896,1.997,1.354,3.25,1.354h9.226c1.248,0,2.338-0.458,3.255-1.354
						c0.917-0.928,1.36-2.007,1.36-3.261v-9.231c0-1.243-0.443-2.343-1.36-3.24C139.765,192.869,138.674,192.406,137.426,192.406
						L137.426,192.406z M137.426,192.406 M174.366,192.406h-9.231c-1.253,0-2.333,0.463-3.245,1.381
						c-0.922,0.897-1.37,1.997-1.37,3.24v9.231c0,1.254,0.448,2.333,1.37,3.261c0.912,0.896,1.992,1.354,3.245,1.354h9.231
						c1.253,0,2.333-0.458,3.25-1.354c0.907-0.928,1.36-2.007,1.36-3.261v-9.231c0-1.243-0.453-2.343-1.36-3.24
						C176.699,192.869,175.619,192.406,174.366,192.406L174.366,192.406z M174.366,192.406 M137.426,155.477H128.2
						c-1.253,0-2.328,0.464-3.25,1.366c-0.912,0.922-1.375,1.997-1.375,3.255v9.226c0,1.253,0.463,2.333,1.375,3.245
						c0.922,0.922,1.997,1.375,3.25,1.375h9.226c1.248,0,2.338-0.453,3.255-1.375c0.917-0.912,1.36-1.992,1.36-3.245v-9.226
						c0-1.258-0.443-2.333-1.36-3.255C139.765,155.94,138.674,155.477,137.426,155.477L137.426,155.477z M137.426,155.477
						 M248.234,229.346h-9.241c-1.243,0-2.323,0.459-3.239,1.365c-0.918,0.917-1.366,1.997-1.366,3.25v9.23
						c0,1.254,0.448,2.334,1.366,3.251c0.916,0.917,1.996,1.365,3.239,1.365h9.241c1.254,0,2.334-0.448,3.25-1.365
						c0.917-0.917,1.365-1.997,1.365-3.251v-9.23c0-1.253-0.448-2.333-1.365-3.25C250.568,229.805,249.488,229.346,248.234,229.346
						L248.234,229.346z M248.234,229.346 M211.3,192.406h-9.231c-1.263,0-2.344,0.463-3.26,1.381
						c-0.897,0.897-1.365,1.997-1.365,3.24v9.231c0,1.254,0.468,2.333,1.365,3.261c0.917,0.896,1.997,1.354,3.26,1.354h9.231
						c1.243,0,2.323-0.458,3.261-1.354c0.896-0.928,1.354-2.007,1.354-3.261v-9.231c0-1.243-0.458-2.343-1.354-3.24
						C213.633,192.869,212.543,192.406,211.3,192.406L211.3,192.406z M211.3,192.406 M174.366,155.477h-9.231
						c-1.253,0-2.333,0.464-3.245,1.366c-0.922,0.922-1.37,1.997-1.37,3.255v9.226c0,1.253,0.448,2.333,1.37,3.245
						c0.912,0.922,1.992,1.375,3.245,1.375h9.231c1.253,0,2.333-0.453,3.25-1.375c0.907-0.912,1.36-1.992,1.36-3.245v-9.226
						c0-1.258-0.453-2.333-1.36-3.255C176.699,155.94,175.619,155.477,174.366,155.477L174.366,155.477z M174.366,155.477
						 M248.234,192.406h-9.241c-1.243,0-2.323,0.463-3.239,1.381c-0.918,0.897-1.366,1.997-1.366,3.24v9.231
						c0,1.254,0.448,2.333,1.366,3.261c0.916,0.896,1.996,1.354,3.239,1.354h9.241c1.254,0,2.334-0.458,3.25-1.354
						c0.917-0.928,1.365-2.007,1.365-3.261v-9.231c0-1.243-0.448-2.343-1.365-3.24C250.568,192.869,249.488,192.406,248.234,192.406
						L248.234,192.406z M248.234,192.406 M211.3,155.477h-9.231c-1.263,0-2.344,0.464-3.26,1.366
						c-0.897,0.922-1.365,1.997-1.365,3.255v9.226c0,1.253,0.468,2.333,1.365,3.245c0.917,0.922,1.997,1.375,3.26,1.375h9.231
						c1.243,0,2.323-0.453,3.261-1.375c0.896-0.912,1.354-1.992,1.354-3.245v-9.226c0-1.258-0.458-2.333-1.354-3.255
						C213.633,155.94,212.543,155.477,211.3,155.477L211.3,155.477z M211.3,155.477 M234.378,169.323
						c0,1.253,0.458,2.333,1.376,3.245c0.916,0.922,1.996,1.375,3.239,1.375h9.241c1.254,0,2.334-0.453,3.25-1.375
						c0.917-0.912,1.365-1.992,1.365-3.245v-9.226c0-1.258-0.448-2.333-1.365-3.255c-0.916-0.902-1.996-1.366-3.25-1.366h-9.241
						c-1.243,0-2.323,0.464-3.239,1.366c-0.918,0.922-1.376,1.997-1.376,3.255V169.323z M234.378,169.323 M172.496,103.927
						c-4.549,0-8.875,0-13.266,0c0-14.932,0-29.823,0-44.806c0.254-0.03,0.535-0.102,0.81-0.102
						c8.181,0.021,16.337,0.01,24.519,0.087c1.712,0.015,3.434,0.229,5.12,0.535c5.899,1.065,9.557,5.858,9.261,12.038
						c-0.265,6.215-3.556,10.306-9.587,11.952c-0.429,0.112-0.826,0.244-1.264,0.376c3.648,5.492,7.255,10.907,10.984,16.496
						c0.601-0.912,1.08-1.584,1.528-2.277c1.406-2.175,2.822-4.371,4.258-6.531c0.204-0.3,0.591-0.652,0.897-0.652
						c4.096-0.046,8.171-0.031,12.502-0.031c-0.316,0.479-0.521,0.805-0.734,1.126c-3.097,4.401-6.185,8.823-9.312,13.2
						c-0.581,0.794-0.662,1.319-0.051,2.175c3.403,4.854,6.725,9.771,10.098,14.667c0.224,0.331,0.438,0.667,0.723,1.136
						c-0.417,0.036-0.713,0.102-1.019,0.102c-3.892,0-7.764-0.015-11.656,0.016c-0.775,0.015-1.172-0.265-1.528-0.922
						c-1.6-2.924-3.261-5.813-4.89-8.716c-0.205-0.341-0.418-0.677-0.704-1.182c-0.296,0.407-0.52,0.713-0.733,1.029
						c-1.987,2.985-3.954,5.986-5.976,8.951c-0.254,0.372-0.754,0.785-1.156,0.8c-3.846,0.041-7.698,0.025-11.544,0.015
						c-0.102,0-0.209-0.056-0.458-0.117c0.224-0.367,0.428-0.698,0.642-1.009c3.409-4.997,6.807-10,10.235-14.977
						c0.438-0.626,0.463-1.065,0.02-1.722c-3.984-5.925-7.999-11.844-11.875-17.845c-1.044-1.62-2.313-2.349-4.167-2.237
						c-0.504,0.025-1.019,0-1.676,0C172.496,91.654,172.496,97.742,172.496,103.927z M172.516,77.425
						c3.521-0.015,6.995,0.347,10.362-0.779c1.712-0.575,2.787-2.369,2.726-4.35c-0.041-2.145-1.085-3.694-3.031-4.188
						c-3.311-0.851-6.674-0.326-10.057-0.454C172.516,70.966,172.516,74.145,172.516,77.425z"/>
				</g>
				<g>

						<rect x="170.343" y="3.572" transform="matrix(0.7214 0.6925 -0.6925 0.7214 179.1776 -77.5595)" width="31.296" height="360.714"/>
				</g>
			</g>
			<g display="inline">
				<path d="M23.559,432.236V382.13h16.235c6.152,0,10.163,0.251,12.031,0.752c2.871,0.752,5.275,2.388,7.212,4.904
					c1.937,2.519,2.905,5.771,2.905,9.759c0,3.076-0.559,5.663-1.675,7.759c-1.117,2.097-2.535,3.742-4.255,4.939
					c-1.721,1.194-3.469,1.987-5.247,2.374c-2.416,0.479-5.913,0.718-10.493,0.718h-6.597v18.901H23.559z M33.675,390.606v14.219
					h5.537c3.987,0,6.653-0.262,7.998-0.786c1.344-0.523,2.398-1.344,3.162-2.461c0.763-1.116,1.145-2.415,1.145-3.896
					c0-1.822-0.536-3.326-1.606-4.512c-1.071-1.185-2.427-1.925-4.067-2.222c-1.208-0.228-3.635-0.342-7.28-0.342H33.675z"/>
				<path d="M79.749,382.13v18.423c3.099-3.623,6.802-5.435,11.108-5.435c2.21,0,4.204,0.41,5.981,1.23s3.116,1.869,4.016,3.145
					c0.9,1.276,1.515,2.689,1.846,4.238c0.33,1.55,0.496,3.954,0.496,7.212v21.293h-9.604v-19.175c0-3.804-0.183-6.22-0.547-7.245
					c-0.365-1.025-1.008-1.84-1.931-2.444c-0.923-0.603-2.08-0.905-3.469-0.905c-1.595,0-3.02,0.388-4.272,1.162
					c-1.253,0.775-2.17,1.943-2.751,3.503c-0.581,1.562-0.872,3.869-0.872,6.921v18.184h-9.604V382.13H79.749z"/>
				<path d="M120.115,407.013l-8.716-1.572c0.979-3.509,2.666-6.106,5.059-7.793c2.393-1.686,5.947-2.529,10.664-2.529
					c4.284,0,7.474,0.508,9.57,1.521c2.096,1.014,3.572,2.302,4.426,3.861c0.854,1.562,1.282,4.427,1.282,8.597l-0.103,11.21
					c0,3.19,0.154,5.543,0.461,7.058c0.308,1.517,0.883,3.14,1.726,4.871h-9.502c-0.251-0.638-0.559-1.583-0.923-2.837
					c-0.16-0.569-0.273-0.945-0.342-1.128c-1.641,1.596-3.396,2.792-5.264,3.589c-1.869,0.797-3.862,1.196-5.981,1.196
					c-3.737,0-6.682-1.014-8.835-3.042c-2.153-2.027-3.23-4.591-3.23-7.69c0-2.051,0.49-3.879,1.47-5.486
					c0.979-1.605,2.353-2.836,4.119-3.691c1.766-0.854,4.312-1.6,7.639-2.237c4.489-0.843,7.599-1.629,9.331-2.358v-0.957
					c0-1.846-0.456-3.161-1.367-3.948c-0.912-0.785-2.632-1.179-5.161-1.179c-1.709,0-3.042,0.337-3.999,1.009
					C121.482,404.147,120.708,405.327,120.115,407.013z M132.966,414.805c-1.23,0.41-3.179,0.9-5.845,1.47
					c-2.666,0.57-4.409,1.128-5.229,1.675c-1.253,0.889-1.88,2.017-1.88,3.384c0,1.345,0.501,2.507,1.504,3.486
					c1.002,0.98,2.278,1.47,3.828,1.47c1.731,0,3.384-0.569,4.956-1.709c1.162-0.865,1.925-1.925,2.29-3.179
					c0.25-0.82,0.376-2.381,0.376-4.683V414.805z"/>
				<path d="M161.062,432.236h-9.604v-36.298h8.921v5.161c1.526-2.438,2.899-4.044,4.119-4.819c1.219-0.774,2.603-1.162,4.153-1.162
					c2.188,0,4.294,0.604,6.323,1.812l-2.974,8.374c-1.618-1.048-3.122-1.572-4.511-1.572c-1.345,0-2.484,0.371-3.418,1.111
					c-0.935,0.74-1.669,2.079-2.205,4.016c-0.536,1.938-0.803,5.992-0.803,12.167V432.236z"/>
				<path d="M178.391,395.938h8.853v4.956c3.167-3.851,6.938-5.776,11.313-5.776c2.324,0,4.341,0.479,6.05,1.436
					s3.11,2.404,4.204,4.341c1.595-1.937,3.315-3.384,5.161-4.341s3.816-1.436,5.913-1.436c2.666,0,4.922,0.542,6.768,1.623
					c1.846,1.083,3.224,2.673,4.135,4.769c0.661,1.55,0.992,4.057,0.992,7.52v23.207h-9.605v-20.747
					c0-3.599-0.331-5.923-0.991-6.972c-0.889-1.367-2.255-2.051-4.101-2.051c-1.345,0-2.609,0.41-3.794,1.23
					c-1.185,0.82-2.04,2.022-2.563,3.606c-0.524,1.584-0.786,4.083-0.786,7.501v17.432h-9.604v-19.893
					c0-3.53-0.171-5.81-0.513-6.835s-0.872-1.788-1.589-2.29c-0.718-0.501-1.692-0.752-2.922-0.752
					c-1.481,0-2.814,0.399-3.999,1.196c-1.185,0.798-2.034,1.948-2.546,3.452s-0.769,3.998-0.769,7.484v17.637h-9.604V395.938z"/>
				<path d="M248.527,407.013l-8.717-1.572c0.98-3.509,2.666-6.106,5.059-7.793c2.393-1.686,5.947-2.529,10.664-2.529
					c4.284,0,7.475,0.508,9.57,1.521c2.097,1.014,3.572,2.302,4.426,3.861c0.855,1.562,1.282,4.427,1.282,8.597l-0.103,11.21
					c0,3.19,0.154,5.543,0.461,7.058c0.309,1.517,0.883,3.14,1.727,4.871h-9.502c-0.25-0.638-0.559-1.583-0.922-2.837
					c-0.16-0.569-0.273-0.945-0.342-1.128c-1.641,1.596-3.396,2.792-5.264,3.589c-1.869,0.797-3.863,1.196-5.982,1.196
					c-3.736,0-6.682-1.014-8.835-3.042c-2.153-2.027-3.229-4.591-3.229-7.69c0-2.051,0.489-3.879,1.469-5.486
					c0.98-1.605,2.354-2.836,4.119-3.691c1.766-0.854,4.313-1.6,7.639-2.237c4.489-0.843,7.6-1.629,9.332-2.358v-0.957
					c0-1.846-0.457-3.161-1.367-3.948c-0.912-0.785-2.633-1.179-5.162-1.179c-1.709,0-3.041,0.337-3.998,1.009
					S249.119,405.327,248.527,407.013z M261.379,414.805c-1.23,0.41-3.18,0.9-5.846,1.47c-2.666,0.57-4.408,1.128-5.229,1.675
					c-1.254,0.889-1.881,2.017-1.881,3.384c0,1.345,0.502,2.507,1.504,3.486c1.003,0.98,2.279,1.47,3.828,1.47
					c1.732,0,3.385-0.569,4.957-1.709c1.162-0.865,1.925-1.925,2.289-3.179c0.251-0.82,0.377-2.381,0.377-4.683V414.805z"/>
				<path d="M311.93,406.671l-9.468,1.709c-0.319-1.891-1.042-3.315-2.171-4.272c-1.127-0.957-2.592-1.436-4.392-1.436
					c-2.393,0-4.302,0.826-5.726,2.478c-1.424,1.653-2.136,4.416-2.136,8.288c0,4.307,0.724,7.349,2.171,9.126
					c1.446,1.777,3.389,2.666,5.827,2.666c1.823,0,3.315-0.518,4.478-1.556c1.162-1.036,1.982-2.819,2.461-5.349l9.434,1.606
					c-0.98,4.33-2.859,7.6-5.64,9.81c-2.78,2.211-6.506,3.315-11.177,3.315c-5.31,0-9.542-1.675-12.697-5.024
					c-3.156-3.35-4.734-7.986-4.734-13.911c0-5.991,1.584-10.657,4.751-13.995s7.451-5.008,12.852-5.008
					c4.421,0,7.935,0.952,10.544,2.854C308.916,399.875,310.79,402.774,311.93,406.671z"/>
				<path d="M314.664,395.938h10.219l8.682,25.771l8.477-25.771h9.947l-12.818,34.931l-2.289,6.323
					c-0.844,2.119-1.646,3.736-2.41,4.854c-0.764,1.116-1.641,2.021-2.632,2.718c-0.991,0.694-2.21,1.235-3.657,1.623
					c-1.447,0.387-3.082,0.581-4.904,0.581c-1.846,0-3.658-0.194-5.436-0.581l-0.854-7.52c1.504,0.296,2.859,0.444,4.066,0.444
					c2.233,0,3.885-0.655,4.957-1.966c1.07-1.311,1.891-2.979,2.461-5.007L314.664,395.938z"/>
			</g>
		</g>
		<g id="type" display="none">
			<text transform="matrix(1 0 0 1 573.8691 340.5605)" display="inline" font-family="'Arial-BoldMT'" font-size="70">Rx</text>
			<text transform="matrix(1 0 0 1 573.8691 340.5605)" display="inline" font-family="'Arial-BoldMT'" font-size="70">Rx</text>
			<text transform="matrix(1 0 0 1 573.8691 340.5605)" display="inline" font-family="'Arial-BoldMT'" font-size="70">Rx</text>
			<text transform="matrix(1 0 0 1 554.3301 324.8809)" display="inline" font-family="'Arial-BoldMT'" font-size="70">Eligibility</text>
			<text transform="matrix(0.89 0 0 1 519.9189 324.8809)" display="inline"><tspan x="0" y="0" font-family="'Arial-BoldMT'" font-size="70" letter-spacing="-1.124">Pending</tspan><tspan x="263.853" y="0" font-family="'Arial-BoldMT'" font-size="70" letter-spacing="-1.124"> </tspan><tspan x="281.901" y="0" font-family="'Arial-BoldMT'" font-size="70">Rx</tspan></text>
			<text transform="matrix(1 0 0 1 576.9609 324.8809)" display="inline" font-family="'Arial-BoldMT'" font-size="70">Eligibility</text>
			<text transform="matrix(0.87 0 0 1 521.9199 339.8926)" display="inline" font-family="'Arial-BoldMT'" font-size="70">Create New Rx</text>
			<text transform="matrix(0.9971 0 0 1 519.9844 325.9668)" display="inline" font-family="'Arial-BoldMT'" font-size="70">Messages</text>
			<text transform="matrix(1 0 0 1 542.4658 324.8809)" display="inline" font-family="'Arial-BoldMT'" font-size="70">Pharmacy</text>
		</g>
		<g id="Layer_10">
		</g>
	</g>
</switch>
</svg>
